<svg width="40" height="40" viewBox="0 0 40 40" fill="none" xmlns="http://www.w3.org/2000/svg">
<path d="M15 36.6667H25C33.3334 36.6667 36.6667 33.3334 36.6667 25V15C36.6667 6.66671 33.3334 3.33337 25 3.33337H15C6.66671 3.33337 3.33337 6.66671 3.33337 15V25C3.33337 33.3334 6.66671 36.6667 15 36.6667Z" stroke="#684594" stroke-width="2" stroke-linecap="round" stroke-linejoin="round"/>
<path d="M30.6334 25.45V12.6334C30.6334 11.35 29.6 10.4167 28.3334 10.5167H28.2667C26.0334 10.7 22.6501 11.8501 20.7501 13.0334L20.5668 13.1501C20.2668 13.3334 19.75 13.3334 19.4333 13.1501L19.1667 12.9834C17.2834 11.8001 13.9 10.6834 11.6667 10.5C10.4 10.4 9.3667 11.3501 9.3667 12.6167V25.45C9.3667 26.4667 10.2 27.4334 11.2167 27.55L11.5167 27.6C13.8167 27.9 17.3834 29.0834 19.4167 30.2L19.4667 30.2167C19.75 30.3834 20.2167 30.3834 20.4833 30.2167C22.5167 29.0834 26.1 27.9167 28.4167 27.6L28.7667 27.55C29.8001 27.4334 30.6334 26.4834 30.6334 25.45Z" stroke="#684594" stroke-width="2" stroke-linecap="round" stroke-linejoin="round"/>
<path d="M20 13.5V29.4333" stroke="#684594" stroke-width="2" stroke-linecap="round" stroke-linejoin="round"/>
</svg>
