<svg width="41" height="40" viewBox="0 0 41 40" fill="none" xmlns="http://www.w3.org/2000/svg">
<path d="M13.6669 36.6667H27.0003C33.7003 36.6667 34.9003 33.9833 35.2503 30.7167L36.5003 17.3833C36.9503 13.3167 35.7836 10 28.6669 10H12.0003C4.88361 10 3.71695 13.3167 4.16695 17.3833L5.41695 30.7167C5.76695 33.9833 6.96695 36.6667 13.6669 36.6667Z" stroke="white" stroke-width="2" stroke-miterlimit="10" stroke-linecap="round" stroke-linejoin="round"/>
<path d="M13.6667 10V8.66671C13.6667 5.71671 13.6667 3.33337 19.0001 3.33337H21.6667C27.0001 3.33337 27.0001 5.71671 27.0001 8.66671V10" stroke="white" stroke-width="2" stroke-miterlimit="10" stroke-linecap="round" stroke-linejoin="round"/>
<path d="M23.6669 21.6667V23.3333C23.6669 23.35 23.6669 23.35 23.6669 23.3667C23.6669 25.1833 23.6502 26.6667 20.3336 26.6667C17.0336 26.6667 17.0002 25.2 17.0002 23.3833V21.6667C17.0002 20 17.0002 20 18.6669 20H22.0002C23.6669 20 23.6669 20 23.6669 21.6667Z" stroke="white" stroke-width="2" stroke-miterlimit="10" stroke-linecap="round" stroke-linejoin="round"/>
<path d="M36.4167 18.3334C32.5667 21.1334 28.1667 22.8 23.6667 23.3667" stroke="white" stroke-width="2" stroke-miterlimit="10" stroke-linecap="round" stroke-linejoin="round"/>
<path d="M4.7002 18.7833C8.45019 21.35 12.6835 22.9 17.0002 23.3833" stroke="white" stroke-width="2" stroke-miterlimit="10" stroke-linecap="round" stroke-linejoin="round"/>
</svg>
