<svg width="41" height="40" viewBox="0 0 41 40" fill="none" xmlns="http://www.w3.org/2000/svg">
<path d="M20.6667 36.6667C29.8714 36.6667 37.3333 29.2048 37.3333 20C37.3333 10.7953 29.8714 3.33337 20.6667 3.33337C11.4619 3.33337 4 10.7953 4 20C4 29.2048 11.4619 36.6667 20.6667 36.6667Z" stroke="white" stroke-width="1.5" stroke-linecap="round" stroke-linejoin="round"/>
<path d="M14 5H15.6666C12.4166 14.7333 12.4166 25.2667 15.6666 35H14" stroke="white" stroke-width="1.5" stroke-linecap="round" stroke-linejoin="round"/>
<path d="M25.6666 5C28.9166 14.7333 28.9166 25.2667 25.6666 35" stroke="white" stroke-width="1.5" stroke-linecap="round" stroke-linejoin="round"/>
<path d="M5.66663 26.6667V25C15.4 28.25 25.9333 28.25 35.6666 25V26.6667" stroke="white" stroke-width="1.5" stroke-linecap="round" stroke-linejoin="round"/>
<path d="M5.66663 15C15.4 11.75 25.9333 11.75 35.6666 15" stroke="white" stroke-width="1.5" stroke-linecap="round" stroke-linejoin="round"/>
</svg>
