<svg width="20" height="21" viewBox="0 0 20 21" fill="none" xmlns="http://www.w3.org/2000/svg">
<g clip-path="url(#clip0_26_112)">
<path d="M19.378 13.9782C19.78 12.8949 20 11.7232 20 10.5C20 9.2768 19.78 8.10508 19.378 7.02176L10 6.15219L0.621992 7.02176C0.220039 8.10508 0 9.2768 0 10.5C0 11.7232 0.220039 12.8949 0.621992 13.9782L10 14.8478L19.378 13.9782Z" fill="#F0F0F0"/>
<path d="M10.0001 20.5C14.2997 20.5 17.9652 17.7862 19.3781 13.9782H0.62207C2.03504 17.7862 5.70043 20.5 10.0001 20.5Z" fill="#D80027"/>
<path d="M10.0001 0.5C5.70043 0.5 2.03504 3.21375 0.62207 7.02176H19.3781C17.9652 3.21375 14.2997 0.5 10.0001 0.5Z" fill="#6DA544"/>
<path d="M2.92893 3.42891C-0.976308 7.33414 -0.976308 13.6658 2.92893 17.5711C3.94826 16.5518 4.94318 15.5568 6.52174 13.9783V7.02176L2.92893 3.42891Z" fill="black"/>
</g>
<defs>
<clipPath id="clip0_26_112">
<rect width="20" height="20" fill="white" transform="translate(0 0.5)"/>
</clipPath>
</defs>
</svg>
