<svg width="50" height="38" viewBox="0 0 50 38" fill="none" xmlns="http://www.w3.org/2000/svg">
<path d="M16.3804 16.2154L14.984 15.8329C12.4646 15.1321 9.94528 14.4285 7.42593 13.7222C7.30922 13.6856 7.20279 13.6226 7.11516 13.5381C6.29885 12.7364 5.49084 11.9285 4.67661 11.1247C4.62613 11.0921 4.5908 11.041 4.57838 10.9827C4.56595 10.9245 4.57743 10.8637 4.61031 10.8138C5.26087 9.51092 5.89692 8.19988 6.54747 6.89702C6.60916 6.77684 6.70681 6.6783 6.82717 6.61477C8.18836 5.9296 9.5682 5.25669 10.9211 4.57356C10.9515 4.55133 10.9861 4.53526 11.0228 4.52631C11.0595 4.51735 11.0977 4.51567 11.1351 4.52138C11.1724 4.52709 11.2083 4.54006 11.2406 4.55955C11.2728 4.57904 11.3009 4.60466 11.323 4.63492C12.1207 5.44282 12.9287 6.24048 13.7305 7.04429C13.7978 7.10394 13.8491 7.17913 13.8797 7.26313C14.7105 10.2247 15.5371 13.1945 16.3804 16.2154Z" fill="white"/>
<path d="M36.877 21.7215C37.8735 20.6989 38.868 19.6762 39.879 18.6536C40.6518 17.8784 41.4433 17.1216 42.2264 16.3567C42.6201 15.9722 43.0137 15.5856 43.4136 15.2072C43.491 15.1359 43.5838 15.0827 43.685 15.0518C44.7976 14.745 45.9143 14.4484 47.0289 14.1416C47.088 14.1151 47.1554 14.1127 47.2163 14.135C47.2772 14.1572 47.3267 14.2022 47.3542 14.2603C48.1995 15.5386 49.0572 16.8128 49.9026 18.0932C49.9665 18.1845 50.0005 18.293 49.9999 18.404C49.9026 19.8562 49.7928 21.3084 49.6974 22.7585C49.7029 22.8296 49.6806 22.9001 49.6352 22.9556C49.5897 23.0111 49.5246 23.0474 49.453 23.0571C48.3735 23.3393 47.2983 23.6359 46.2209 23.9182C46.0725 23.9593 45.9162 23.9649 45.7651 23.9345C42.8231 23.2064 39.8832 22.4735 36.9453 21.7358L36.877 21.7215Z" fill="white"/>
<path d="M33.6324 16.2463C33.734 15.872 33.8231 15.5284 33.9204 15.1868C34.6483 12.5824 35.3769 9.97877 36.1062 7.37579C36.1355 7.275 36.1896 7.18294 36.2637 7.10786C37.0696 6.28974 37.8838 5.49412 38.6877 4.68213C38.7085 4.65314 38.7349 4.62856 38.7655 4.60983C38.7961 4.59109 38.8301 4.5786 38.8656 4.57307C38.9012 4.56754 38.9375 4.56909 38.9724 4.57764C39.0073 4.58618 39.0401 4.60154 39.0689 4.62282C40.4156 5.29981 41.7727 5.96044 43.1173 6.64153C43.274 6.72283 43.4014 6.85 43.4819 7.00559C44.1242 8.28595 44.7478 9.57449 45.3859 10.8569C45.4197 10.9061 45.4326 10.9665 45.4217 11.0251C45.4109 11.0836 45.3772 11.1356 45.3279 11.1698C44.5137 11.9736 43.7078 12.7836 42.8935 13.5874C42.8141 13.668 42.716 13.7284 42.6076 13.7633C39.6767 14.5814 36.7443 15.3995 33.8106 16.2176C33.752 16.2313 33.6925 16.2409 33.6324 16.2463Z" fill="white"/>
<path d="M28.1297 13.0659C27.9225 12.2662 27.7278 11.4931 27.5289 10.722C26.9764 8.52947 26.4177 6.33623 25.8528 4.14231C25.8248 4.02529 25.8248 3.90345 25.8528 3.78643C26.147 2.69833 26.4515 1.61432 26.7416 0.524175C26.7449 0.488878 26.7554 0.454604 26.7724 0.4234C26.7895 0.392195 26.8127 0.3647 26.8407 0.342555C26.8688 0.320411 26.901 0.304071 26.9356 0.294512C26.9702 0.284953 27.0064 0.282371 27.042 0.28692C28.5772 0.215335 30.1145 0.133523 31.6497 0.0598919C31.7616 0.0539302 31.8726 0.0809881 31.9688 0.137613C33.2119 0.955733 34.426 1.80044 35.6567 2.63083C35.6823 2.64166 35.7055 2.6575 35.7249 2.6774C35.7442 2.69731 35.7592 2.72086 35.7691 2.74665C35.779 2.77244 35.7835 2.79994 35.7823 2.82749C35.7811 2.85503 35.7743 2.88206 35.7623 2.90695C35.4495 4.0155 35.1532 5.13019 34.8424 6.23874C34.8107 6.34662 34.7524 6.44503 34.6725 6.52508C32.9184 8.28677 31.1622 10.0444 29.4039 11.7979C29.0247 12.1762 28.6518 12.5587 28.2747 12.9391C28.2416 12.978 28.196 13.0107 28.1297 13.0659Z" fill="white"/>
<path d="M21.8541 13.033C21.6034 12.7773 21.3776 12.5401 21.1476 12.309C19.294 10.4518 17.437 8.5981 15.5765 6.74779C15.321 6.50732 15.14 6.20021 15.0544 5.86218C14.7871 4.80885 14.4846 3.76575 14.1884 2.69196L15.2802 1.94952C16.1815 1.33593 17.0786 0.722341 17.9736 0.121023C18.088 0.0473581 18.2224 0.00957127 18.3589 0.0126224C19.8962 0.0842079 21.4315 0.168065 22.9667 0.241696C23.1262 0.241696 23.1925 0.290783 23.236 0.446226C23.5302 1.55069 23.841 2.6531 24.1414 3.75552C24.1663 3.85839 24.1663 3.96558 24.1414 4.06845C23.4039 6.98641 22.6642 9.90573 21.9225 12.8264C21.908 12.8837 21.8894 12.9307 21.8541 13.033Z" fill="white"/>
<path d="M13.2271 21.6478L10.5337 22.3207C8.46184 22.8382 6.39001 23.3434 4.31818 23.8731C4.11965 23.9227 3.91116 23.9177 3.71528 23.8588C2.59442 23.5499 1.46941 23.2452 0.327832 22.9466C0.278108 22.2675 0.228384 21.5926 0.17866 20.9176C0.118577 20.0709 0.0522784 19.2221 0.000482571 18.3753C-0.00421033 18.2643 0.0254148 18.1544 0.0854276 18.0604C0.926591 16.7861 1.78019 15.5221 2.61928 14.2479C2.63649 14.2113 2.66106 14.1785 2.69149 14.1515C2.72192 14.1245 2.75758 14.1038 2.79631 14.0908C2.83505 14.0778 2.87605 14.0727 2.91685 14.0758C2.95764 14.0789 2.99737 14.0901 3.03364 14.1088C4.0668 14.3993 5.10271 14.6795 6.14139 14.9495C6.35677 15.0002 6.55387 15.1085 6.71114 15.2624C8.81474 17.324 10.9225 19.3823 13.0344 21.4371C13.0903 21.4944 13.14 21.5537 13.2271 21.6478Z" fill="white"/>
<path d="M34.9149 37.951V36.869C34.9149 36.4027 34.9149 35.9364 34.9149 35.47C34.9246 35.4025 34.9187 35.3337 34.8976 35.2688C34.8765 35.2039 34.8408 35.1445 34.7932 35.0951C34.7455 35.0457 34.6872 35.0076 34.6225 34.9836C34.5579 34.9597 34.4885 34.9504 34.4198 34.9567C34.2457 34.9567 34.0738 34.9567 33.8666 34.9567V37.9428H30.6138C30.0062 37.9623 29.4137 37.753 28.9567 37.3572C28.4996 36.9614 28.2121 36.4089 28.1525 35.8116C28.075 35.2205 28.096 34.6208 28.2146 34.0363L30.1041 33.7684C30.0131 34.1948 29.9439 34.6256 29.897 35.0589C29.8327 36.0693 30.3963 36.6481 31.4156 36.6665C31.6518 36.6665 31.8901 36.6665 32.1511 36.6665V33.6211H35.004C35.4019 33.6238 35.7826 33.7816 36.0631 34.0601C36.3437 34.3386 36.5014 34.7152 36.502 35.108C36.502 35.6214 36.502 36.1307 36.502 36.6604H38.7996V33.6865H40.6208V36.642H42.821C42.7858 36.4232 42.734 36.2166 42.7174 36.0059C42.6056 34.656 43.2416 33.9095 44.6505 33.7234C45.1899 33.6211 45.7475 33.67 46.2603 33.8645C46.8818 34.1345 47.2506 34.5762 47.2444 35.2819C47.234 36.1654 47.2444 37.047 47.2444 37.951H34.9149ZM45.6387 36.6093V36.3516C45.6387 36.0816 45.6553 35.8116 45.6387 35.5437C45.627 35.392 45.5585 35.2501 45.4468 35.1454C45.335 35.0407 45.1878 34.9807 45.0338 34.9771C44.9511 34.9755 44.8689 34.9902 44.7921 35.0203C44.7152 35.0504 44.6452 35.0953 44.5862 35.1524C44.5272 35.2096 44.4803 35.2778 44.4482 35.353C44.4162 35.4283 44.3998 35.5091 44.3998 35.5907C44.387 35.7523 44.3919 35.9149 44.4143 36.0755C44.4211 36.2076 44.4749 36.3332 44.5662 36.4301C44.6575 36.527 44.7805 36.589 44.9136 36.6052C45.1394 36.6215 45.3756 36.6093 45.6387 36.6093Z" fill="white"/>
<path d="M9.77538 37.9265H7.99361V37.5829C7.99361 36.8875 7.99361 36.1921 7.99361 35.4967C7.99361 35.0753 7.82165 34.9076 7.38863 34.9056H7.0012V37.9572H5.42454C5.42454 37.8733 5.41211 37.7874 5.41211 37.7015V35.6562C5.41211 34.9915 5.22979 34.8381 4.515 34.9138V37.9081H2.77881V33.7111H8.16557C8.37731 33.7021 8.58864 33.7367 8.7861 33.8127C8.98356 33.8887 9.16284 34.0045 9.31251 34.1526C9.46218 34.3007 9.57897 34.478 9.65545 34.6732C9.73193 34.8683 9.76642 35.077 9.75674 35.286C9.75674 36.0796 9.75674 36.8731 9.75674 37.6667L9.77538 37.9265Z" fill="white"/>
<path d="M24.8832 16.2196C24.3342 15.6367 23.8079 15.0517 23.2506 14.4954C23.1479 14.4083 23.0751 14.2918 23.0425 14.1621C23.0098 14.0324 23.0188 13.8958 23.0683 13.7714C23.7147 11.4602 24.3383 9.14288 24.9681 6.8276C24.9681 6.81124 24.9806 6.79692 25.0034 6.7417C25.1422 7.24075 25.2748 7.70503 25.4032 8.17341C25.9295 10.1042 26.453 12.0343 26.9737 13.9636C26.9873 14.0145 26.9897 14.0677 26.9808 14.1195C26.9719 14.1714 26.9518 14.2208 26.9219 14.2643C26.2548 14.9147 25.5752 15.559 24.8832 16.2196Z" fill="white"/>
<path d="M43.1319 24.8384L41.2879 25.3088C39.4813 25.7642 37.6733 26.2224 35.8639 26.6833C35.7923 26.7096 35.7142 26.7138 35.6402 26.6951C35.5661 26.6765 35.4996 26.6359 35.4495 26.5789C34.8404 25.9899 34.2189 25.4152 33.5289 24.7668C33.877 24.4539 34.2168 24.1532 34.5441 23.8505C34.8715 23.5478 35.232 23.1653 35.58 22.8279C35.614 22.7994 35.6538 22.7785 35.6968 22.7669C35.7397 22.7552 35.7847 22.753 35.8287 22.7604C38.2638 23.434 40.6961 24.1103 43.1257 24.7893L43.1319 24.8384Z" fill="white"/>
<path d="M16.4052 24.7708L14.9777 26.1146C14.8616 26.2072 14.7535 26.3091 14.6545 26.4194C14.4742 26.6607 14.265 26.6689 13.9853 26.5973C11.6835 26.0021 9.37754 25.4233 7.07366 24.8383L6.80432 24.7627C7.49217 24.5581 8.12615 24.3863 8.7622 24.2084C10.5274 23.7155 12.2843 23.2266 14.0537 22.7235C14.1318 22.6939 14.2177 22.6907 14.2979 22.7144C14.3781 22.7381 14.4481 22.7873 14.497 22.8544C15.0668 23.4394 15.649 24.0079 16.227 24.5827L16.4052 24.7708Z" fill="white"/>
<path d="M29.2505 17.3608C29.0434 16.5427 28.8362 15.745 28.5958 14.9576C28.5396 14.8192 28.5317 14.6662 28.5733 14.5229C28.615 14.3795 28.7038 14.254 28.8258 14.166C30.5309 12.5809 32.2133 10.9713 33.9039 9.37185C33.9598 9.31868 34.022 9.26959 34.1235 9.18164L32.957 13.1843C32.6483 14.2438 32.3355 15.2991 32.033 16.3606C32.0174 16.4381 31.9784 16.5091 31.921 16.5643C31.8637 16.6194 31.7908 16.6561 31.7119 16.6695C30.8956 16.8904 30.0793 17.1235 29.2505 17.3608Z" fill="white"/>
<path d="M40.7368 15.8556C39.9771 16.5851 39.2175 17.3146 38.4578 18.0441C37.4039 19.0599 36.348 20.0757 35.29 21.0916C35.259 21.1181 35.2226 21.1378 35.1834 21.1494C35.1441 21.1611 35.1027 21.1643 35.0621 21.159C34.2023 20.9545 33.3425 20.75 32.4681 20.5455C32.4729 20.4768 32.4819 20.4085 32.4951 20.3409C32.7147 19.5228 32.9426 18.7047 33.1539 17.8866C33.1627 17.8197 33.193 17.7574 33.2404 17.7088C33.2878 17.6602 33.3497 17.6279 33.417 17.6166C35.4792 17.1121 37.5393 16.6028 39.5973 16.0888C39.8936 16.0151 40.1878 15.9354 40.4861 15.8658C40.5713 15.8545 40.6572 15.8504 40.743 15.8535L40.7368 15.8556Z" fill="white"/>
<path d="M9.3175 15.8002C9.77331 15.9025 10.2333 15.9945 10.687 16.107C12.649 16.5917 14.611 17.0826 16.5731 17.5673C16.6409 17.5755 16.7043 17.605 16.7539 17.6513C16.8035 17.6977 16.8367 17.7586 16.8486 17.8251C17.0558 18.6554 17.2899 19.4817 17.5116 20.308C17.5261 20.3633 17.5323 20.4185 17.5468 20.4901C16.6621 20.6946 15.7899 20.9135 14.9135 21.1037C14.8713 21.1027 14.8297 21.0934 14.7913 21.0761C14.7528 21.0589 14.7183 21.0342 14.6898 21.0034C13.9992 20.3408 13.3044 19.6754 12.6055 19.0072C11.5627 18.0037 10.5219 16.9981 9.48325 15.9904C9.42413 15.9259 9.36945 15.8576 9.31958 15.7859L9.3175 15.8002Z" fill="white"/>
<path d="M15.9391 9.15332C16.7927 9.97144 17.6421 10.7773 18.4957 11.5852C19.4695 12.5076 20.4453 13.4259 21.417 14.3504C21.4422 14.3743 21.4617 14.4034 21.4742 14.4355C21.4868 14.4677 21.492 14.5022 21.4895 14.5365C21.2533 15.4528 21.0068 16.361 20.7561 17.3079L19.7906 17.0339C19.2747 16.8886 18.7547 16.7352 18.2409 16.6003C18.1773 16.5887 18.1188 16.5582 18.0732 16.5129C18.0277 16.4675 17.9972 16.4095 17.9861 16.3466C17.3106 14.0164 16.6318 11.6881 15.9494 9.36194C15.9414 9.29399 15.9414 9.22536 15.9494 9.15741L15.9391 9.15332Z" fill="white"/>
<path d="M24.0378 29.0068H26.1097V37.9877H24.0378V29.0068Z" fill="white"/>
<path d="M17.7809 33.7194C18.7774 33.7194 19.7615 33.6949 20.7436 33.7194C21.0707 33.7469 21.3757 33.8937 21.599 34.1312C21.8223 34.3687 21.948 34.6798 21.9515 35.0039C21.9867 35.959 21.9515 36.9183 21.9515 37.8673C21.9515 37.8836 21.939 37.8979 21.9266 37.9245H20.4038V37.1555H19.4673V37.9123H17.7726L17.7809 33.7194ZM20.3727 35.7647C20.4473 34.9875 20.1303 34.6889 19.3803 34.8075V35.7647H20.3727Z" fill="white"/>
<path d="M13.1898 35.4312V36.3188H11.5799V36.9017H13.1815V37.9366H10.1628V37.4928C10.1628 36.6092 10.1628 35.7257 10.1628 34.8442C10.152 34.6925 10.1743 34.5404 10.2284 34.398C10.2824 34.2557 10.3668 34.1265 10.4759 34.0192C10.5849 33.9119 10.7161 33.829 10.8605 33.7762C11.0049 33.7234 11.1591 33.7019 11.3127 33.7131C11.9156 33.7131 12.5206 33.7131 13.1235 33.7131C13.1449 33.7167 13.1658 33.7228 13.1856 33.7315V34.8667H11.5696V35.4291L13.1898 35.4312Z" fill="white"/>
<path d="M16.3575 37.9365H14.7001V34.8685H13.803V33.7334H17.2339V34.8583H16.3575V37.9365Z" fill="white"/>
<path d="M29.7602 18.3406V20.3716H27.6884V18.3406H29.7602Z" fill="white"/>
<path d="M23.9508 18.3345H26.0081V20.3798H23.9508V18.3345Z" fill="white"/>
<path d="M29.7519 27.3829H27.6904V25.3376H29.7519V27.3829Z" fill="white"/>
<path d="M27.6904 21.9404H29.7519V23.9857H27.6904V21.9404Z" fill="white"/>
<path d="M22.5295 18.3428V20.3738H20.4576V18.3428H22.5295Z" fill="white"/>
<path d="M22.5275 25.3479V27.3809H20.4557V25.3479H22.5275Z" fill="white"/>
<path d="M22.517 23.9877H20.4576V21.9424H22.517V23.9877Z" fill="white"/>
<path d="M23.9425 23.9813V21.9524H26.0143V23.9813H23.9425Z" fill="white"/>
<path d="M39.6201 32.5186C39.6171 32.7323 39.5282 32.9361 39.373 33.0851C39.2177 33.2341 39.0089 33.3162 38.7924 33.3132C38.5759 33.3102 38.3695 33.2224 38.2185 33.0692C38.0676 32.916 37.9845 32.7098 37.9875 32.4961C37.9905 32.2824 38.0794 32.0786 38.2347 31.9296C38.3899 31.7805 38.5987 31.6985 38.8152 31.7015C39.0317 31.7045 39.2381 31.7922 39.3891 31.9455C39.54 32.0987 39.6231 32.3049 39.6201 32.5186Z" fill="white"/>
<path d="M41.4744 32.5186C41.4755 32.625 41.4551 32.7306 41.4143 32.8291C41.3736 32.9276 41.3134 33.0171 41.2372 33.0923C41.1609 33.1676 41.0703 33.227 40.9705 33.2672C40.8707 33.3075 40.7638 33.3276 40.656 33.3265C40.4362 33.3265 40.2254 33.2403 40.07 33.0869C39.9146 32.9335 39.8273 32.7254 39.8273 32.5084C39.8316 32.2943 39.9208 32.0904 40.0758 31.9404C40.2307 31.7905 40.4391 31.7066 40.656 31.7066C40.7643 31.705 40.8718 31.7249 40.9721 31.7651C41.0725 31.8054 41.1635 31.8652 41.2399 31.941C41.3163 32.0168 41.3764 32.107 41.4167 32.2062C41.457 32.3055 41.4766 32.4117 41.4744 32.5186Z" fill="white"/>
<path d="M26.1076 25.3479V27.3932H24.0358V25.3479H26.1076ZM24.1787 27.2398H25.9564V25.4931H24.1787V27.2398Z" fill="white"/>
<path d="M40.7409 15.8576L40.714 15.827L40.7326 15.8147C40.7326 15.829 40.7326 15.8413 40.7326 15.8556L40.7409 15.8576Z" fill="white"/>
<path d="M9.31952 15.7985L9.2843 15.7842L9.30709 15.7678V15.8005L9.31952 15.7985Z" fill="white"/>
</svg>
