<svg width="1902" height="213" viewBox="0 0 1902 213" fill="none" xmlns="http://www.w3.org/2000/svg">
<g opacity="0.16" clip-path="url(#clip0_64_584)">
<g opacity="0.3">
<path d="M450.558 183.177L450.157 183.507L513.04 259.763L513.44 259.433L450.558 183.177Z" fill="white"/>
<path d="M450.13 183.298L419.671 270.032L420.161 270.204L450.62 183.47L450.13 183.298Z" fill="white"/>
<path d="M1133.08 193.423L1132.69 193.759L1200.27 273.423L1200.67 273.087L1133.08 193.423Z" fill="white"/>
<path d="M1030.16 145.215L995.408 221.399L995.88 221.614L1030.63 145.43L1030.16 145.215Z" fill="white"/>
<path d="M450.488 183.144L450.242 183.6L609.822 269.669L610.069 269.213L450.488 183.144Z" fill="white"/>
<path d="M687.059 145.271L686.671 145.616L763.531 232.064L763.919 231.719L687.059 145.271Z" fill="white"/>
<path d="M896.235 101.128L896.691 101.379L763.918 231.95L763.464 231.7L896.235 101.128Z" fill="white"/>
<path d="M896.607 101.035L995.843 221.332L995.556 221.763L896.319 101.469L896.607 101.035Z" fill="white"/>
<path d="M686.591 145.233L609.722 269.306L610.163 269.579L687.032 145.506L686.591 145.233Z" fill="white"/>
<path d="M394.832 207.466L394.351 207.661L419.662 270.212L420.142 270.017L394.832 207.466Z" fill="white"/>
<path d="M362.225 71.9668L394.849 207.529L394.336 207.591L361.709 72.0317L362.225 71.9668Z" fill="white"/>
<path d="M896.506 100.996L1030.54 145.127L1030.45 145.637L896.421 101.509L896.506 100.996Z" fill="white"/>
<path d="M1194.28 42.6365L1194.59 43.0481L1030.65 145.589L1030.34 145.177L1194.28 42.6365Z" fill="white"/>
<path d="M1194.6 42.645L1402.24 188.406L1401.9 188.801L1194.26 43.0426L1194.6 42.645Z" fill="white"/>
<path d="M1194.18 42.7888L1194.69 42.8988L1172.66 140.601L1172.15 140.494L1194.18 42.7888Z" fill="white"/>
<path d="M1194.25 42.6619L1194.62 43.0256L995.882 221.729L995.516 221.365L1194.25 42.6619Z" fill="white"/>
<path d="M1172.65 140.435L1172.15 140.542L1200.2 273.226L1200.71 273.119L1172.65 140.435Z" fill="white"/>
<path d="M1172.29 140.287L995.565 221.237L995.781 221.709L1172.51 140.759L1172.29 140.287Z" fill="white"/>
<path d="M1194.64 42.6902L1309.71 166.246L1309.29 166.553L1194.23 42.9975L1194.64 42.6902Z" fill="white"/>
<path d="M1309.62 166.167L1309.5 166.671L1402.07 188.878L1402.19 188.373L1309.62 166.167Z" fill="white"/>
<path d="M1178.89 144.49L1178.79 144.999L1315.51 171.506L1315.61 170.998L1178.89 144.49Z" fill="white"/>
<path d="M1309.31 166.209L1200.32 273.094L1200.68 273.465L1309.68 166.58L1309.31 166.209Z" fill="white"/>
<path d="M1309.73 166.286L1309.29 166.564L1367.88 259.062L1368.32 258.784L1309.73 166.286Z" fill="white"/>
<path d="M1721.14 186.184L1721.59 186.441L1702.59 254.288L1702.14 254.029L1721.14 186.184Z" fill="white"/>
<path d="M1721.59 186.173L1785.91 229.041L1785.47 229.317L1721.15 186.449L1721.59 186.173Z" fill="white"/>
<path d="M1721.24 186.088L1721.49 186.536L1602.57 255.842L1602.32 255.393L1721.24 186.088Z" fill="white"/>
<path d="M1567.04 127.656L1567.49 127.921L1507.75 244.966L1507.31 244.704L1567.04 127.656Z" fill="white"/>
<path d="M1721.39 186.054L1968.21 278.137L1968.15 278.653L1721.33 186.57L1721.39 186.054Z" fill="white"/>
<path d="M1567.3 127.532L1721.4 186.054L1721.33 186.568L1567.23 128.045L1567.3 127.532Z" fill="white"/>
<path d="M1567.2 127.537L1567.33 128.039L1402.14 188.854L1402 188.352L1567.2 127.537Z" fill="white"/>
<path d="M1401.77 188.441L1367.79 258.735L1368.25 258.961L1402.23 188.667L1401.77 188.441Z" fill="white"/>
<path d="M1567.51 127.707L1602.69 255.534L1602.2 255.698L1567.02 127.87L1567.51 127.707Z" fill="white"/>
<path d="M1131.31 200.305L1063.61 364.198L1064.09 364.396L1131.78 200.502L1131.31 200.305Z" fill="white"/>
<path d="M1172.21 140.41L1132.71 193.461L1133.13 193.771L1172.63 140.72L1172.21 140.41Z" fill="white"/>
<path d="M1132.81 193.251L995.647 221.258L995.751 221.766L1132.92 193.76L1132.81 193.251Z" fill="white"/>
<path d="M1194.69 42.8423L1200.72 273.233L1200.2 273.236L1194.17 42.8451L1194.69 42.8423Z" fill="white"/>
<path d="M1567.14 127.563L1567.39 128.014L1368.22 259.121L1367.96 258.673L1567.14 127.563Z" fill="white"/>
<path d="M1567.43 127.585L1702.53 253.955L1702.21 254.361L1567.1 127.991L1567.43 127.585Z" fill="white"/>
<path d="M1132.74 193.423L1065.14 247.898L1065.46 248.302L1133.07 193.827L1132.74 193.423Z" fill="white"/>
<path d="M911.244 197.929L911.105 198.429L995.668 221.817L995.807 221.317L911.244 197.929Z" fill="white"/>
<path d="M896.652 101.074L911.325 197.984L910.948 198.34L896.274 101.43L896.652 101.074Z" fill="white"/>
<path d="M911.082 197.916L763.63 231.552L763.746 232.058L911.198 198.422L911.082 197.916Z" fill="white"/>
<path d="M763.949 166.401H763.43V231.826H763.949V166.401Z" fill="white"/>
<path d="M686.85 145.115L686.713 145.615L763.583 166.63L763.719 166.129L686.85 145.115Z" fill="white"/>
<path d="M651.531 80.6516L763.842 166.19L763.54 166.61L651.226 81.0717L651.531 80.6516Z" fill="white"/>
<path d="M651.133 80.7783L651.624 80.9447L594.872 171.623L594.378 171.457L651.133 80.7783Z" fill="white"/>
<path d="M686.764 145.216L594.55 171.31L594.691 171.809L686.906 145.715L686.764 145.216Z" fill="white"/>
<path d="M651.585 80.7051L687.031 145.225L686.616 145.538L651.173 81.0181L651.585 80.7051Z" fill="white"/>
<path d="M896.297 101.052L896.629 101.452L763.856 166.601L763.526 166.201L896.297 101.052Z" fill="white"/>
<path d="M594.882 171.477L594.369 171.557L609.702 269.473L610.215 269.393L594.882 171.477Z" fill="white"/>
<path d="M651.201 80.6714L651.556 81.052L515.013 175.695L514.66 175.314L651.201 80.6714Z" fill="white"/>
<path d="M514.795 175.282L450.336 183.174L450.399 183.689L514.858 175.797L514.795 175.282Z" fill="white"/>
<path d="M362.109 71.7808L514.976 175.286L514.694 175.723L361.827 72.2178L362.109 71.7808Z" fill="white"/>
<path d="M362.177 71.8457L450.583 183.226L450.165 183.536L361.76 72.153L362.177 71.8457Z" fill="white"/>
<path d="M361.858 71.7639L362.075 72.2348L168.343 186.108L168.126 185.637L361.858 71.7639Z" fill="white"/>
<path d="M289.141 160.372L168.189 185.618L168.295 186.126L289.247 160.879L289.141 160.372Z" fill="white"/>
<path d="M289.309 160.431L289.098 160.905L394.497 207.81L394.708 207.336L289.309 160.431Z" fill="white"/>
<path d="M168.208 185.615L168.259 186.133L-61.5489 288.138L-61.5996 287.62L168.208 185.615Z" fill="white"/>
<path d="M168.376 185.655L168.099 186.094L232.802 226.966L233.08 226.527L168.376 185.655Z" fill="white"/>
<path d="M394.547 207.31L232.899 226.557L232.961 227.072L394.608 207.825L394.547 207.31Z" fill="white"/>
<path d="M450.277 183.129L394.479 207.275L394.686 207.751L450.483 183.605L450.277 183.129Z" fill="white"/>
<path d="M361.805 71.7976L362.129 72.2008L289.356 160.86L289.031 160.457L361.805 71.7976Z" fill="white"/>
<path d="M289.01 160.514L232.738 226.586L233.133 226.922L289.405 160.85L289.01 160.514Z" fill="white"/>
<path d="M594.62 171.249L514.83 175.193L514.856 175.711L594.646 171.767L594.62 171.249Z" fill="white"/>
<path d="M515.051 175.369L514.686 175.739L609.799 269.696L610.163 269.327L515.051 175.369Z" fill="white"/>
<path d="M394.386 207.364L364.755 240.215L365.14 240.563L394.772 207.711L394.386 207.364Z" fill="white"/>
<path d="M1564.28 127.788C1564.27 127.196 1564.45 126.617 1564.78 126.125C1565.11 125.633 1565.57 125.249 1566.12 125.022C1566.67 124.795 1567.27 124.736 1567.85 124.851C1568.43 124.966 1568.96 125.251 1569.38 125.67C1569.8 126.089 1570.09 126.622 1570.2 127.202C1570.32 127.783 1570.26 128.385 1570.03 128.932C1569.8 129.478 1569.42 129.946 1568.93 130.274C1568.43 130.603 1567.86 130.778 1567.26 130.777C1566.47 130.776 1565.71 130.461 1565.15 129.901C1564.59 129.34 1564.28 128.581 1564.28 127.788Z" fill="white"/>
<path d="M1399.09 188.603C1399.09 188.012 1399.26 187.433 1399.59 186.941C1399.92 186.448 1400.39 186.064 1400.93 185.837C1401.48 185.611 1402.08 185.551 1402.66 185.666C1403.24 185.781 1403.78 186.066 1404.2 186.484C1404.61 186.902 1404.9 187.435 1405.02 188.016C1405.13 188.596 1405.07 189.198 1404.85 189.745C1404.62 190.292 1404.24 190.759 1403.74 191.088C1403.25 191.417 1402.67 191.592 1402.08 191.592C1401.29 191.592 1400.53 191.277 1399.97 190.717C1399.41 190.157 1399.09 189.396 1399.09 188.603Z" fill="white"/>
<path d="M1306.51 166.401C1306.51 165.809 1306.69 165.23 1307.01 164.738C1307.34 164.246 1307.81 163.862 1308.36 163.635C1308.9 163.408 1309.5 163.349 1310.08 163.464C1310.66 163.579 1311.2 163.863 1311.62 164.282C1312.04 164.7 1312.32 165.233 1312.44 165.813C1312.55 166.394 1312.49 166.996 1312.27 167.542C1312.04 168.089 1311.66 168.557 1311.16 168.885C1310.67 169.214 1310.09 169.39 1309.5 169.39C1308.71 169.39 1307.95 169.075 1307.39 168.515C1306.83 167.954 1306.51 167.194 1306.51 166.401Z" fill="white"/>
<path d="M1191.44 42.8593C1191.44 42.2674 1191.62 41.6887 1191.94 41.1964C1192.27 40.704 1192.74 40.3202 1193.29 40.0933C1193.83 39.8664 1194.44 39.8068 1195.02 39.9219C1195.6 40.037 1196.13 40.3217 1196.55 40.74C1196.97 41.1583 1197.25 41.6913 1197.37 42.2717C1197.48 42.8522 1197.42 43.4538 1197.2 44.0007C1196.97 44.5475 1196.59 45.0149 1196.1 45.3437C1195.6 45.6726 1195.03 45.8481 1194.43 45.8481C1193.64 45.8481 1192.88 45.5333 1192.32 44.9729C1191.76 44.4124 1191.44 43.6522 1191.44 42.8593Z" fill="white"/>
<path d="M1169.41 140.547C1169.41 139.956 1169.59 139.377 1169.92 138.885C1170.25 138.393 1170.72 138.009 1171.26 137.783C1171.81 137.557 1172.41 137.498 1172.99 137.613C1173.57 137.729 1174.1 138.014 1174.52 138.433C1174.94 138.852 1175.23 139.385 1175.34 139.965C1175.46 140.546 1175.4 141.148 1175.17 141.694C1174.94 142.241 1174.56 142.708 1174.07 143.036C1173.57 143.365 1173 143.54 1172.4 143.539C1171.61 143.538 1170.85 143.223 1170.29 142.662C1169.73 142.101 1169.41 141.34 1169.41 140.547Z" fill="white"/>
<path d="M1129.88 193.572C1129.88 192.98 1130.06 192.403 1130.39 191.912C1130.72 191.421 1131.18 191.038 1131.73 190.812C1132.28 190.586 1132.88 190.528 1133.46 190.643C1134.04 190.759 1134.57 191.044 1134.99 191.462C1135.4 191.88 1135.69 192.413 1135.8 192.992C1135.92 193.572 1135.86 194.173 1135.63 194.719C1135.41 195.265 1135.02 195.731 1134.53 196.06C1134.04 196.388 1133.46 196.563 1132.87 196.563C1132.48 196.563 1132.09 196.486 1131.73 196.335C1131.36 196.185 1131.03 195.965 1130.76 195.687C1130.48 195.409 1130.26 195.079 1130.11 194.716C1129.96 194.353 1129.88 193.964 1129.88 193.572Z" fill="white"/>
<path d="M1027.5 145.383C1027.5 144.791 1027.68 144.213 1028.01 143.72C1028.33 143.228 1028.8 142.844 1029.35 142.617C1029.89 142.39 1030.5 142.331 1031.08 142.446C1031.66 142.561 1032.19 142.846 1032.61 143.264C1033.03 143.682 1033.31 144.215 1033.43 144.796C1033.54 145.376 1033.48 145.978 1033.26 146.525C1033.03 147.071 1032.65 147.539 1032.16 147.868C1031.66 148.197 1031.09 148.372 1030.49 148.372C1029.7 148.372 1028.94 148.057 1028.38 147.497C1027.82 146.936 1027.5 146.176 1027.5 145.383Z" fill="white"/>
<path d="M908.148 198.162C908.148 197.571 908.323 196.993 908.652 196.501C908.98 196.01 909.447 195.627 909.993 195.401C910.539 195.174 911.14 195.115 911.72 195.231C912.3 195.346 912.832 195.631 913.25 196.049C913.668 196.467 913.953 196.999 914.068 197.579C914.184 198.159 914.124 198.76 913.898 199.306C913.672 199.852 913.289 200.319 912.797 200.647C912.306 200.976 911.728 201.151 911.137 201.151C910.744 201.151 910.356 201.074 909.993 200.923C909.63 200.773 909.301 200.553 909.023 200.275C908.746 199.998 908.526 199.668 908.375 199.306C908.225 198.943 908.148 198.554 908.148 198.162Z" fill="white"/>
<path d="M760.712 166.401C760.711 165.809 760.886 165.23 761.215 164.738C761.543 164.245 762.011 163.862 762.557 163.635C763.104 163.408 763.706 163.348 764.287 163.464C764.867 163.579 765.4 163.864 765.819 164.283C766.238 164.701 766.523 165.235 766.638 165.815C766.753 166.396 766.694 166.998 766.467 167.544C766.24 168.091 765.856 168.558 765.364 168.887C764.872 169.215 764.293 169.39 763.701 169.39C762.908 169.389 762.149 169.074 761.588 168.514C761.028 167.953 760.713 167.193 760.712 166.401Z" fill="white"/>
<path d="M683.833 145.383C683.832 144.791 684.008 144.212 684.336 143.72C684.665 143.228 685.132 142.844 685.678 142.617C686.225 142.39 686.827 142.331 687.408 142.446C687.988 142.561 688.522 142.846 688.94 143.265C689.359 143.683 689.644 144.217 689.759 144.797C689.874 145.378 689.815 145.98 689.588 146.527C689.361 147.073 688.977 147.541 688.485 147.869C687.993 148.198 687.414 148.373 686.822 148.372C686.029 148.371 685.27 148.056 684.709 147.496C684.149 146.935 683.834 146.176 683.833 145.383Z" fill="white"/>
<path d="M648.39 80.8601C648.39 80.2691 648.566 79.6915 648.895 79.2003C649.223 78.7092 649.691 78.3265 650.237 78.1007C650.783 77.8749 651.384 77.8162 651.963 77.9318C652.543 78.0474 653.075 78.3323 653.493 78.7504C653.911 79.1686 654.195 79.7011 654.31 80.2808C654.425 80.8605 654.366 81.4614 654.14 82.0073C653.913 82.5533 653.53 83.0199 653.039 83.3482C652.547 83.6765 651.97 83.8518 651.379 83.8518C650.586 83.851 649.825 83.5355 649.265 82.9745C648.705 82.4136 648.39 81.653 648.39 80.8601Z" fill="white"/>
<path d="M591.635 171.539C591.636 170.948 591.813 170.37 592.143 169.879C592.472 169.389 592.94 169.007 593.486 168.781C594.033 168.556 594.634 168.498 595.213 168.614C595.793 168.729 596.325 169.015 596.743 169.433C597.161 169.851 597.445 170.383 597.561 170.963C597.676 171.543 597.617 172.144 597.391 172.69C597.165 173.236 596.783 173.703 596.292 174.032C595.801 174.361 595.223 174.538 594.632 174.539C594.238 174.54 593.848 174.462 593.484 174.312C593.119 174.161 592.789 173.94 592.51 173.662C592.231 173.383 592.011 173.052 591.861 172.687C591.71 172.323 591.634 171.933 591.635 171.539Z" fill="white"/>
<path d="M447.385 183.381C447.385 182.79 447.561 182.211 447.89 181.719C448.219 181.227 448.686 180.843 449.233 180.617C449.78 180.391 450.381 180.332 450.962 180.447C451.542 180.563 452.075 180.848 452.493 181.267C452.912 181.686 453.196 182.219 453.311 182.799C453.427 183.38 453.367 183.982 453.14 184.528C452.913 185.075 452.529 185.542 452.037 185.87C451.545 186.199 450.966 186.374 450.374 186.373C449.581 186.372 448.821 186.057 448.26 185.496C447.7 184.935 447.385 184.174 447.385 183.381Z" fill="white"/>
<path d="M391.615 207.56C391.615 206.969 391.79 206.391 392.118 205.9C392.447 205.408 392.914 205.025 393.46 204.799C394.006 204.573 394.607 204.513 395.187 204.629C395.767 204.744 396.299 205.029 396.717 205.447C397.135 205.865 397.42 206.397 397.535 206.977C397.65 207.557 397.591 208.158 397.365 208.704C397.139 209.25 396.756 209.717 396.264 210.045C395.773 210.374 395.195 210.549 394.604 210.549C394.211 210.549 393.822 210.472 393.459 210.322C393.097 210.172 392.767 209.952 392.489 209.674C392.212 209.397 391.992 209.067 391.842 208.704C391.691 208.342 391.614 207.953 391.615 207.56Z" fill="white"/>
<path d="M165.244 185.874C165.244 185.282 165.419 184.703 165.747 184.211C166.076 183.718 166.543 183.334 167.09 183.108C167.636 182.881 168.238 182.821 168.819 182.937C169.399 183.052 169.933 183.337 170.351 183.756C170.77 184.174 171.055 184.708 171.17 185.288C171.286 185.869 171.226 186.47 170.999 187.017C170.772 187.564 170.389 188.031 169.896 188.36C169.404 188.688 168.825 188.863 168.233 188.863C167.44 188.863 166.68 188.548 166.12 187.987C165.559 187.427 165.244 186.667 165.244 185.874Z" fill="white"/>
<path d="M286.203 160.657C286.203 160.066 286.379 159.487 286.707 158.995C287.036 158.503 287.503 158.12 288.05 157.893C288.597 157.667 289.198 157.608 289.778 157.723C290.359 157.839 290.892 158.124 291.31 158.542C291.729 158.96 292.014 159.493 292.129 160.074C292.244 160.654 292.185 161.256 291.959 161.802C291.732 162.349 291.349 162.816 290.857 163.145C290.365 163.474 289.787 163.649 289.195 163.649C288.401 163.649 287.64 163.334 287.079 162.773C286.518 162.212 286.203 161.451 286.203 160.657Z" fill="white"/>
<path d="M358.977 72.0009C358.976 71.409 359.151 70.8304 359.479 70.338C359.808 69.8456 360.275 69.4618 360.821 69.2349C361.368 69.008 361.97 68.9484 362.55 69.0635C363.131 69.1786 363.664 69.4633 364.083 69.8816C364.501 70.2999 364.787 70.8329 364.902 71.4134C365.018 71.9938 364.959 72.5954 364.732 73.1423C364.506 73.6891 364.123 74.1565 363.631 74.4853C363.139 74.8142 362.56 74.9897 361.968 74.9897C361.175 74.9897 360.415 74.6749 359.854 74.1145C359.293 73.554 358.977 72.7938 358.977 72.0009Z" fill="white"/>
<path d="M511.846 175.503C511.845 174.912 512.019 174.333 512.347 173.841C512.675 173.349 513.141 172.965 513.687 172.738C514.233 172.511 514.835 172.451 515.415 172.565C515.995 172.68 516.528 172.964 516.947 173.382C517.365 173.8 517.65 174.332 517.766 174.912C517.882 175.492 517.823 176.093 517.597 176.64C517.371 177.186 516.988 177.654 516.496 177.982C516.005 178.311 515.426 178.486 514.835 178.486C514.043 178.486 513.284 178.172 512.724 177.613C512.163 177.054 511.848 176.295 511.846 175.503Z" fill="white"/>
<path d="M893.474 101.252C893.474 100.66 893.649 100.081 893.977 99.5889C894.306 99.0965 894.773 98.7126 895.32 98.4858C895.866 98.2591 896.468 98.1996 897.049 98.3149C897.629 98.4303 898.163 98.7152 898.581 99.1338C899 99.5524 899.285 100.086 899.4 100.666C899.515 101.247 899.456 101.849 899.229 102.395C899.002 102.942 898.619 103.409 898.126 103.738C897.634 104.066 897.055 104.242 896.463 104.241C895.67 104.241 894.91 103.926 894.349 103.366C893.789 102.805 893.474 102.045 893.474 101.252Z" fill="white"/>
<path d="M1718.37 186.311C1718.37 185.72 1718.55 185.142 1718.88 184.65C1719.21 184.159 1719.67 183.775 1720.22 183.548C1720.76 183.322 1721.36 183.261 1721.94 183.376C1722.52 183.49 1723.06 183.774 1723.48 184.191C1723.9 184.608 1724.18 185.139 1724.3 185.719C1724.42 186.298 1724.36 186.899 1724.13 187.446C1723.91 187.993 1723.53 188.461 1723.04 188.792C1722.55 189.122 1721.97 189.3 1721.38 189.303C1720.99 189.305 1720.6 189.229 1720.23 189.079C1719.87 188.93 1719.53 188.709 1719.26 188.431C1718.98 188.153 1718.75 187.823 1718.6 187.459C1718.45 187.095 1718.37 186.705 1718.37 186.311Z" fill="white"/>
</g>
<path d="M905.269 3.03459L718.152 140.586L718.486 141.041L905.603 3.48897L905.269 3.03459Z" fill="white"/>
<path d="M905.617 3.02832L905.334 3.51611L1199.42 174.131L1199.71 173.644L905.617 3.02832Z" fill="white"/>
<path d="M905.219 3.17231L861.414 118.008L861.94 118.209L905.746 3.37331L905.219 3.17231Z" fill="white"/>
<path d="M718.318 140.471L718.269 141.033L781.409 146.557L781.458 145.995L718.318 140.471Z" fill="white"/>
<path d="M1060.68 134.728L1060.52 135.271L1199.39 174.096L1199.54 173.553L1060.68 134.728Z" fill="white"/>
<path d="M1389.59 88.3576L1199.43 173.66L1199.66 174.174L1389.82 88.8722L1389.59 88.3576Z" fill="white"/>
<path d="M1389.75 88.2418L1389.42 88.6985L1562.62 214.162L1562.95 213.705L1389.75 88.2418Z" fill="white"/>
<path d="M1261.14 206.44L1189.22 255.481L1189.54 255.947L1261.46 206.906L1261.14 206.44Z" fill="white"/>
<path d="M1389.57 88.4366L1261.13 206.457L1261.51 206.872L1389.95 88.8519L1389.57 88.4366Z" fill="white"/>
<path d="M1199.34 173.842L1189.12 255.611L1189.68 255.681L1199.9 173.912L1199.34 173.842Z" fill="white"/>
<path d="M1389.94 88.4134L1389.44 88.6753L1461.2 225.528L1461.7 225.266L1389.94 88.4134Z" fill="white"/>
<path d="M508.255 48.7993L508.029 49.3162L718.106 140.966L718.332 140.449L508.255 48.7993Z" fill="white"/>
<path d="M508.062 48.8944L358.761 153.242L359.084 153.704L508.385 49.3566L508.062 48.8944Z" fill="white"/>
<path d="M508.483 49.0046L507.922 49.0667L515.566 118.08L516.126 118.017L508.483 49.0046Z" fill="white"/>
<path d="M508.388 48.8644L508.077 49.335L666.027 153.682L666.338 153.211L508.388 48.8644Z" fill="white"/>
<path d="M515.903 117.806L515.665 118.318L714.614 210.835L714.851 210.324L515.903 117.806Z" fill="white"/>
<path d="M861.491 117.853L714.653 210.43L714.954 210.907L861.792 118.33L861.491 117.853Z" fill="white"/>
<path d="M718.067 140.755L714.576 210.635L715.139 210.663L718.63 140.783L718.067 140.755Z" fill="white"/>
<path d="M861.917 118.005L861.414 118.26L937.016 266.958L937.518 266.702L861.917 118.005Z" fill="white"/>
<path d="M861.933 118.097H861.369V237.968H861.933V118.097Z" fill="white"/>
<path d="M715.006 210.465L714.576 210.829L788.008 297.387L788.438 297.022L715.006 210.465Z" fill="white"/>
<path d="M1389.46 88.4972L1356.19 214.697L1356.74 214.841L1390.01 88.641L1389.46 88.4972Z" fill="white"/>
<path d="M1725.9 137.938L1562.78 213.86L1563.02 214.371L1726.13 138.449L1725.9 137.938Z" fill="white"/>
<path d="M1726.17 137.851L1725.84 138.311L1838.91 218.693L1839.23 218.234L1726.17 137.851Z" fill="white"/>
<path d="M1261.31 206.28L1261.26 206.842L1356.4 215.032L1356.45 214.47L1261.31 206.28Z" fill="white"/>
<path d="M1199.67 173.614L1199.41 174.112L1261.12 206.813L1261.38 206.315L1199.67 173.614Z" fill="white"/>
<path d="M905.701 3.15012L905.142 3.21777L936.987 266.758L937.547 266.69L905.701 3.15012Z" fill="white"/>
<path d="M905.215 3.06131L781.171 146.06L781.597 146.429L905.641 3.43084L905.215 3.06131Z" fill="white"/>
<path d="M1095.65 210.418L937.17 266.571L937.358 267.103L1095.84 210.95L1095.65 210.418Z" fill="white"/>
<path d="M905.622 3.02634L905.145 3.32593L1005.32 163.078L1005.8 162.778L905.622 3.02634Z" fill="white"/>
<path d="M1005.37 162.869L937.055 266.665L937.526 266.975L1005.84 163.179L1005.37 162.869Z" fill="white"/>
<path d="M715.06 210.533L714.508 210.65L744.994 354.816L745.546 354.699L715.06 210.533Z" fill="white"/>
<path d="M714.559 210.393L596.113 326.505L596.508 326.907L714.954 210.795L714.559 210.393Z" fill="white"/>
<path d="M516.121 118.106L515.564 118.192L532.359 226.308L532.916 226.221L516.121 118.106Z" fill="white"/>
<path d="M714.765 210.333L532.627 225.916L532.675 226.478L714.813 210.895L714.765 210.333Z" fill="white"/>
<path d="M359.019 153.17L358.788 153.685L426.442 184.104L426.673 183.589L359.019 153.17Z" fill="white"/>
<path d="M237.592 106.669L237.39 107.196L358.79 153.675L358.992 153.149L237.592 106.669Z" fill="white"/>
<path d="M237.34 106.695L112.287 192.321L112.606 192.786L237.658 107.161L237.34 106.695Z" fill="white"/>
<path d="M237.249 106.813L169.232 231.254L169.727 231.525L237.743 107.084L237.249 106.813Z" fill="white"/>
<path d="M112.378 192.286L-174.787 287.591L-174.609 288.126L112.555 192.821L112.378 192.286Z" fill="white"/>
<path d="M237.304 106.747L78.7383 258.329L79.128 258.736L237.694 107.154L237.304 106.747Z" fill="white"/>
<path d="M237.705 106.748L237.32 107.159L380.956 241.712L381.341 241.301L237.705 106.748Z" fill="white"/>
<path d="M359.173 153.397L358.626 153.535L380.862 241.602L381.409 241.464L359.173 153.397Z" fill="white"/>
<path d="M237.772 106.884L237.236 107.061L277.742 229.897L278.277 229.72L237.772 106.884Z" fill="white"/>
<path d="M426.344 183.685L380.922 241.323L381.365 241.673L426.787 184.034L426.344 183.685Z" fill="white"/>
<path d="M426.661 183.58L426.452 184.104L532.547 226.474L532.756 225.95L426.661 183.58Z" fill="white"/>
<path d="M515.699 117.907L426.38 183.614L426.715 184.069L516.033 118.361L515.699 117.907Z" fill="white"/>
<path d="M507.947 48.9185L426.276 183.667L426.759 183.96L508.43 49.2108L507.947 48.9185Z" fill="white"/>
<path d="M781.24 146.096L714.59 210.436L714.982 210.842L781.631 146.502L781.24 146.096Z" fill="white"/>
<path d="M861.561 117.856L781.331 146.046L781.518 146.578L861.748 118.388L861.561 117.856Z" fill="white"/>
<path d="M515.965 117.841L515.836 118.39L666.15 153.729L666.279 153.18L515.965 117.841Z" fill="white"/>
<path d="M666.398 153.282L665.968 153.647L714.589 210.857L715.019 210.492L666.398 153.282Z" fill="white"/>
<path d="M718.208 140.455L666.094 153.13L666.227 153.678L718.341 141.003L718.208 140.455Z" fill="white"/>
<path d="M905.664 3.07888L905.299 3.50879L1060.53 135.29L1060.89 134.86L905.664 3.07888Z" fill="white"/>
<path d="M1060.53 134.752L1005.46 162.74L1005.71 163.243L1060.79 135.254L1060.53 134.752Z" fill="white"/>
<path d="M1005.6 162.727L1005.57 163.29L1199.51 174.133L1199.54 173.57L1005.6 162.727Z" fill="white"/>
<path d="M861.444 118.014L787.934 297.073L788.456 297.287L861.966 118.229L861.444 118.014Z" fill="white"/>
<path d="M715.073 210.601L714.509 210.605L716.263 489.726L716.827 489.723L715.073 210.601Z" fill="white"/>
<path d="M1005.79 162.802L1005.52 163.301L1095.67 210.929L1095.93 210.431L1005.79 162.802Z" fill="white"/>
<path d="M1095.8 210.339L1095.56 210.848L1189.16 255.836L1189.41 255.328L1095.8 210.339Z" fill="white"/>
<path d="M1199.44 173.643L1095.65 210.417L1095.84 210.949L1199.63 174.175L1199.44 173.643Z" fill="white"/>
<path d="M1726.19 137.838L1725.66 138.013L1765.73 261.111L1766.26 260.936L1726.19 137.838Z" fill="white"/>
<path d="M1725.61 137.695L1622.29 246.006L1622.7 246.395L1726.02 138.085L1725.61 137.695Z" fill="white"/>
<path d="M112.188 192.425L78.6626 258.364L79.1653 258.619L112.69 192.681L112.188 192.425Z" fill="white"/>
<path d="M718.033 210.631C718.034 211.274 717.843 211.903 717.486 212.438C717.129 212.973 716.621 213.39 716.027 213.637C715.433 213.883 714.779 213.948 714.148 213.822C713.517 213.697 712.938 213.387 712.483 212.933C712.028 212.478 711.718 211.898 711.593 211.267C711.468 210.636 711.532 209.982 711.779 209.388C712.025 208.794 712.442 208.286 712.977 207.929C713.512 207.572 714.141 207.382 714.785 207.383C715.646 207.383 716.472 207.725 717.082 208.334C717.691 208.943 718.033 209.769 718.033 210.631Z" fill="white"/>
<path d="M667.279 156.521C668.964 155.908 669.833 154.043 669.219 152.358C668.605 150.672 666.741 149.803 665.056 150.417C663.37 151.031 662.501 152.895 663.115 154.581C663.729 156.266 665.593 157.135 667.279 156.521Z" fill="white"/>
<path d="M515.844 121.514C517.638 121.514 519.093 120.06 519.093 118.266C519.093 116.472 517.638 115.018 515.844 115.018C514.051 115.018 512.596 116.472 512.596 118.266C512.596 120.06 514.051 121.514 515.844 121.514Z" fill="white"/>
<path d="M429.802 183.844C429.802 184.486 429.611 185.114 429.254 185.648C428.897 186.183 428.39 186.599 427.797 186.845C427.203 187.091 426.55 187.155 425.92 187.03C425.29 186.904 424.711 186.595 424.257 186.141C423.802 185.686 423.493 185.108 423.368 184.477C423.242 183.847 423.307 183.194 423.552 182.601C423.798 182.007 424.215 181.5 424.749 181.143C425.283 180.786 425.911 180.595 426.553 180.595C427.415 180.595 428.241 180.938 428.85 181.547C429.46 182.156 429.802 182.982 429.802 183.844Z" fill="white"/>
<path d="M362.149 153.422C362.15 154.066 361.959 154.695 361.602 155.23C361.245 155.765 360.737 156.182 360.142 156.429C359.548 156.675 358.893 156.739 358.262 156.613C357.631 156.487 357.052 156.177 356.597 155.722C356.143 155.266 355.833 154.686 355.709 154.055C355.584 153.424 355.649 152.77 355.897 152.176C356.144 151.581 356.562 151.074 357.098 150.718C357.634 150.361 358.263 150.172 358.907 150.174C359.767 150.175 360.592 150.518 361.2 151.127C361.808 151.736 362.149 152.562 362.149 153.422Z" fill="white"/>
<path d="M240.761 106.939C240.761 107.582 240.571 108.21 240.214 108.744C239.857 109.278 239.35 109.695 238.756 109.94C238.162 110.186 237.509 110.251 236.879 110.125C236.249 110 235.67 109.691 235.216 109.236C234.762 108.782 234.452 108.203 234.327 107.573C234.202 106.943 234.266 106.29 234.512 105.696C234.758 105.103 235.174 104.596 235.708 104.239C236.242 103.882 236.87 103.691 237.513 103.691C238.374 103.691 239.201 104.033 239.81 104.643C240.419 105.252 240.761 106.078 240.761 106.939Z" fill="white"/>
<path d="M1008.84 163.009C1008.84 163.651 1008.65 164.279 1008.3 164.814C1007.94 165.348 1007.43 165.764 1006.84 166.01C1006.25 166.256 1005.59 166.32 1004.96 166.195C1004.33 166.07 1003.75 165.76 1003.3 165.306C1002.85 164.852 1002.54 164.273 1002.41 163.643C1002.29 163.013 1002.35 162.359 1002.6 161.766C1002.84 161.172 1003.26 160.665 1003.79 160.308C1004.33 159.951 1004.95 159.761 1005.6 159.761C1006.46 159.761 1007.28 160.103 1007.89 160.712C1008.5 161.321 1008.84 162.148 1008.84 163.009Z" fill="white"/>
<path d="M1063.91 135.021C1063.91 135.663 1063.72 136.291 1063.36 136.825C1063.01 137.36 1062.5 137.776 1061.91 138.022C1061.31 138.268 1060.66 138.332 1060.03 138.207C1059.4 138.081 1058.82 137.772 1058.37 137.318C1057.91 136.863 1057.6 136.285 1057.48 135.654C1057.35 135.024 1057.42 134.371 1057.66 133.778C1057.91 133.184 1058.32 132.677 1058.86 132.32C1059.39 131.963 1060.02 131.772 1060.66 131.772C1061.52 131.772 1062.35 132.115 1062.96 132.724C1063.57 133.333 1063.91 134.159 1063.91 135.021Z" fill="white"/>
<path d="M1202.77 173.851C1202.77 174.493 1202.58 175.119 1202.22 175.652C1201.86 176.185 1201.36 176.599 1200.76 176.844C1200.17 177.088 1199.51 177.15 1198.89 177.024C1198.26 176.897 1197.68 176.587 1197.23 176.132C1196.77 175.678 1196.46 175.099 1196.34 174.469C1196.22 173.839 1196.28 173.187 1196.53 172.594C1196.77 172.001 1197.19 171.494 1197.72 171.138C1198.26 170.781 1198.88 170.591 1199.53 170.591C1199.95 170.591 1200.38 170.675 1200.77 170.839C1201.17 171.003 1201.53 171.244 1201.83 171.546C1202.13 171.849 1202.37 172.209 1202.53 172.604C1202.69 173 1202.78 173.423 1202.77 173.851Z" fill="white"/>
<path d="M1264.48 206.551C1264.48 207.193 1264.29 207.821 1263.93 208.355C1263.58 208.888 1263.07 209.304 1262.48 209.55C1261.88 209.795 1261.23 209.859 1260.6 209.733C1259.97 209.608 1259.39 209.298 1258.94 208.844C1258.48 208.389 1258.17 207.811 1258.05 207.181C1257.92 206.55 1257.99 205.898 1258.23 205.304C1258.48 204.711 1258.9 204.204 1259.43 203.847C1259.96 203.49 1260.59 203.3 1261.24 203.3C1261.66 203.299 1262.08 203.383 1262.48 203.546C1262.87 203.71 1263.23 203.949 1263.53 204.251C1263.84 204.553 1264.07 204.912 1264.24 205.306C1264.4 205.701 1264.48 206.124 1264.48 206.551Z" fill="white"/>
<path d="M1359.61 214.739C1359.61 215.381 1359.42 216.009 1359.07 216.544C1358.71 217.078 1358.2 217.494 1357.61 217.74C1357.02 217.986 1356.36 218.05 1355.73 217.925C1355.1 217.8 1354.52 217.49 1354.07 217.036C1353.61 216.582 1353.3 216.003 1353.18 215.373C1353.05 214.743 1353.12 214.089 1353.36 213.496C1353.61 212.902 1354.03 212.395 1354.56 212.038C1355.09 211.681 1355.72 211.491 1356.37 211.491C1357.23 211.491 1358.05 211.833 1358.66 212.442C1359.27 213.051 1359.61 213.878 1359.61 214.739Z" fill="white"/>
<path d="M1566.12 214.014C1566.12 214.658 1565.93 215.287 1565.58 215.822C1565.22 216.357 1564.71 216.774 1564.12 217.02C1563.52 217.267 1562.87 217.331 1562.24 217.206C1561.61 217.081 1561.03 216.771 1560.57 216.316C1560.12 215.861 1559.81 215.282 1559.68 214.651C1559.56 214.02 1559.62 213.366 1559.87 212.772C1560.11 212.178 1560.53 211.67 1561.07 211.313C1561.6 210.956 1562.23 210.766 1562.87 210.766C1563.74 210.766 1564.56 211.108 1565.17 211.718C1565.78 212.327 1566.12 213.153 1566.12 214.014Z" fill="white"/>
<path d="M1725.95 141.292C1727.75 141.292 1729.2 139.837 1729.2 138.043C1729.2 136.249 1727.75 134.795 1725.95 134.795C1724.16 134.795 1722.71 136.249 1722.71 138.043C1722.71 139.837 1724.16 141.292 1725.95 141.292Z" fill="white"/>
<path d="M1392.94 88.5383C1392.94 89.1808 1392.75 89.8088 1392.39 90.343C1392.03 90.8771 1391.53 91.2935 1390.93 91.5393C1390.34 91.7852 1389.69 91.8495 1389.06 91.7242C1388.42 91.5988 1387.85 91.2895 1387.39 90.8352C1386.94 90.3809 1386.63 89.8021 1386.5 89.172C1386.38 88.5419 1386.44 87.8888 1386.69 87.2953C1386.93 86.7017 1387.35 86.1944 1387.88 85.8375C1388.42 85.4805 1389.05 85.29 1389.69 85.29C1390.12 85.2897 1390.54 85.3734 1390.93 85.5365C1391.33 85.6996 1391.68 85.9389 1391.99 86.2406C1392.29 86.5423 1392.53 86.9006 1392.69 87.2948C1392.85 87.6891 1392.94 88.1116 1392.94 88.5383Z" fill="white"/>
<path d="M864.9 118.097C864.9 118.74 864.71 119.37 864.353 119.905C863.995 120.44 863.487 120.857 862.893 121.103C862.298 121.35 861.644 121.414 861.013 121.288C860.382 121.162 859.802 120.852 859.348 120.397C858.893 119.941 858.584 119.361 858.459 118.73C858.334 118.099 858.4 117.444 858.647 116.85C858.894 116.256 859.312 115.749 859.848 115.393C860.384 115.036 861.014 114.847 861.657 114.849C862.518 114.85 863.342 115.193 863.95 115.802C864.558 116.411 864.9 117.236 864.9 118.097Z" fill="white"/>
<path d="M784.663 146.271C784.663 146.914 784.472 147.542 784.115 148.076C783.758 148.61 783.251 149.026 782.657 149.272C782.064 149.518 781.411 149.582 780.781 149.457C780.151 149.332 779.572 149.022 779.117 148.568C778.663 148.114 778.354 147.535 778.228 146.905C778.103 146.275 778.167 145.622 778.413 145.028C778.659 144.435 779.075 143.927 779.61 143.57C780.144 143.213 780.772 143.023 781.414 143.023C782.276 143.023 783.102 143.365 783.711 143.974C784.32 144.584 784.663 145.41 784.663 146.271Z" fill="white"/>
<path d="M908.678 3.24828C908.679 3.89153 908.488 4.52049 908.131 5.05556C907.774 5.59063 907.266 6.00777 906.672 6.25419C906.078 6.50061 905.424 6.56523 904.793 6.43987C904.162 6.31452 903.583 6.00482 903.128 5.54998C902.673 5.09513 902.363 4.51558 902.238 3.88467C902.113 3.25375 902.177 2.59983 902.424 2.00566C902.67 1.41148 903.087 0.903757 903.622 0.546736C904.157 0.189714 904.786 -0.000556426 905.43 1.22227e-06C906.291 1.22227e-06 907.117 0.34223 907.727 0.951401C908.336 1.56057 908.678 2.38679 908.678 3.24828Z" fill="white"/>
<path d="M115.697 192.565C115.697 193.207 115.506 193.835 115.149 194.37C114.792 194.904 114.285 195.32 113.692 195.566C113.098 195.812 112.445 195.876 111.815 195.751C111.185 195.625 110.606 195.316 110.152 194.862C109.697 194.408 109.388 193.829 109.263 193.199C109.137 192.569 109.202 191.915 109.447 191.322C109.693 190.728 110.11 190.221 110.644 189.864C111.178 189.507 111.806 189.317 112.448 189.317C112.875 189.316 113.298 189.4 113.692 189.563C114.086 189.726 114.444 189.966 114.746 190.267C115.048 190.569 115.287 190.927 115.45 191.321C115.613 191.716 115.697 192.138 115.697 192.565Z" fill="white"/>
<path d="M511.451 49.0823C511.452 49.7255 511.262 50.3545 510.905 50.8895C510.548 51.4246 510.04 51.8418 509.446 52.0882C508.852 52.3346 508.198 52.3992 507.567 52.2739C506.936 52.1485 506.356 51.8388 505.901 51.384C505.447 50.9291 505.137 50.3496 505.012 49.7187C504.886 49.0877 504.951 48.4338 505.197 47.8396C505.444 47.2455 505.861 46.7377 506.396 46.3807C506.931 46.0237 507.56 45.8334 508.203 45.834C509.065 45.834 509.891 46.1762 510.5 46.7854C511.109 47.3946 511.451 48.2208 511.451 49.0823Z" fill="white"/>
<path d="M721.519 140.75C721.519 141.393 721.328 142.021 720.971 142.555C720.614 143.089 720.107 143.506 719.513 143.751C718.92 143.997 718.267 144.062 717.637 143.936C717.006 143.811 716.428 143.502 715.973 143.047C715.519 142.593 715.21 142.014 715.084 141.384C714.959 140.754 715.023 140.101 715.269 139.507C715.515 138.914 715.931 138.407 716.466 138.05C717 137.693 717.628 137.502 718.27 137.502C719.132 137.502 719.958 137.844 720.567 138.454C721.176 139.063 721.519 139.889 721.519 140.75Z" fill="white"/>
</g>
<defs>
<clipPath id="clip0_64_584">
<rect width="1902" height="221" fill="white"/>
</clipPath>
</defs>
</svg>
