<svg width="1902" height="304" viewBox="0 0 1902 304" fill="none" xmlns="http://www.w3.org/2000/svg">
<g opacity="0.3">
<path d="M1197.05 148.269L1024.86 274.897L1025.16 275.315L1197.36 148.687L1197.05 148.269Z" fill="white"/>
<path d="M754.479 117.894L754.219 118.343L1024.89 275.372L1025.15 274.923L754.479 117.894Z" fill="white"/>
<path d="M1065.1 169.35L1024.78 275.041L1025.26 275.226L1065.58 169.535L1065.1 169.35Z" fill="white"/>
<path d="M1139.17 143.217L1139.13 143.734L1197.24 148.818L1197.29 148.301L1139.17 143.217Z" fill="white"/>
<path d="M754.338 117.808L754.198 118.307L882.006 154.04L882.146 153.54L754.338 117.808Z" fill="white"/>
<path d="M754.201 117.873L579.197 196.413L579.409 196.886L754.414 118.346L754.201 117.873Z" fill="white"/>
<path d="M420.025 80.8534L419.721 81.2735L579.122 196.746L579.426 196.325L420.025 80.8534Z" fill="white"/>
<path d="M763.524 42.5616L697.364 87.7436L697.657 88.1721L763.817 42.9901L763.524 42.5616Z" fill="white"/>
<path d="M697.349 87.8141L579.122 196.415L579.473 196.797L697.7 88.1961L697.349 87.8141Z" fill="white"/>
<path d="M763.362 42.7685L754.027 118.036L754.541 118.1L763.876 42.8324L763.362 42.7685Z" fill="white"/>
<path d="M450.557 -5.8227L450.157 -5.4926L513.039 70.7627L513.44 70.4326L450.557 -5.8227Z" fill="white"/>
<path d="M513.483 70.5153L513.023 70.7562L579.067 196.711L579.526 196.47L513.483 70.5153Z" fill="white"/>
<path d="M450.13 -5.70235L419.671 81.0324L420.161 81.2043L450.62 -5.53044L450.13 -5.70235Z" fill="white"/>
<path d="M1197.24 148.243L1197.04 148.719L1390.38 233.07L1390.59 232.594L1197.24 148.243Z" fill="white"/>
<path d="M1527.8 136.589L1390.46 232.722L1390.76 233.147L1528.1 137.014L1527.8 136.589Z" fill="white"/>
<path d="M1383.82 169.277L1383.31 169.334L1390.34 232.851L1390.86 232.794L1383.82 169.277Z" fill="white"/>
<path d="M1245.4 136.714L1245.11 137.147L1390.48 233.185L1390.77 232.752L1245.4 136.714Z" fill="white"/>
<path d="M1200.68 84.071L1200.46 84.5414L1383.55 169.723L1383.77 169.253L1200.68 84.071Z" fill="white"/>
<path d="M1200.27 83.9084L1065.15 169.161L1065.43 169.599L1200.55 84.3472L1200.27 83.9084Z" fill="white"/>
<path d="M1200.23 84.2264L1196.95 148.539L1197.47 148.565L1200.75 84.2528L1200.23 84.2264Z" fill="white"/>
<path d="M995.683 32.2716L763.678 42.604L763.701 43.1223L995.706 32.7899L995.683 32.2716Z" fill="white"/>
<path d="M995.945 32.4743L995.482 32.7095L1065.06 169.566L1065.53 169.331L995.945 32.4743Z" fill="white"/>
<path d="M1065.55 59.0762H1065.03V169.402H1065.55V59.0762Z" fill="white"/>
<path d="M1133.08 4.42344L1132.69 4.75905L1200.27 84.4228L1200.67 84.0872L1133.08 4.42344Z" fill="white"/>
<path d="M1030.16 -43.7855L995.408 32.3992L995.88 32.6145L1030.63 -43.5701L1030.16 -43.7855Z" fill="white"/>
<path d="M763.636 42.605L609.89 80.1978L610.014 80.7018L763.759 43.109L763.636 42.605Z" fill="white"/>
<path d="M609.67 80.3764L579.068 196.531L579.569 196.664L610.172 80.5086L609.67 80.3764Z" fill="white"/>
<path d="M450.488 -5.85629L450.242 -5.39963L609.822 80.6695L610.069 80.2128L450.488 -5.85629Z" fill="white"/>
<path d="M687.058 -43.7289L686.671 -43.3842L763.531 43.0636L763.918 42.7189L687.058 -43.7289Z" fill="white"/>
<path d="M896.235 -87.8719L896.691 -87.6209L763.918 42.9504L763.464 42.6995L896.235 -87.8719Z" fill="white"/>
<path d="M896.607 -87.9649L995.843 32.3315L995.555 32.7629L896.319 -87.5307L896.607 -87.9649Z" fill="white"/>
<path d="M686.591 -43.7674L609.722 80.3059L610.163 80.5792L687.032 -43.4942L686.591 -43.7674Z" fill="white"/>
<path d="M419.794 80.8233L269.707 150.778L269.926 151.248L420.013 81.2935L419.794 80.8233Z" fill="white"/>
<path d="M165.897 76.869L165.597 77.2919L269.66 151.273L269.961 150.85L165.897 76.869Z" fill="white"/>
<path d="M394.832 18.4662L394.351 18.6608L419.661 81.212L420.142 81.0174L394.832 18.4662Z" fill="white"/>
<path d="M362.225 -117.033L394.849 18.5291L394.336 18.5911L361.709 -116.968L362.225 -117.033Z" fill="white"/>
<path d="M610.007 80.2068L609.962 80.7237L697.528 88.2615L697.573 87.7446L610.007 80.2068Z" fill="white"/>
<path d="M697.652 87.7725L697.409 88.2309L754.202 118.327L754.445 117.868L697.652 87.7725Z" fill="white"/>
<path d="M513.211 70.4439L419.859 80.8984L419.917 81.414L513.268 70.9595L513.211 70.4439Z" fill="white"/>
<path d="M513.335 70.4048L513.282 70.921L609.985 80.7437L610.037 80.2275L513.335 70.4048Z" fill="white"/>
<path d="M995.961 32.4448L995.446 32.507L1024.76 275.06L1025.27 274.998L995.961 32.4448Z" fill="white"/>
<path d="M1139.01 143.389L1024.8 274.961L1025.19 275.301L1139.4 143.729L1139.01 143.389Z" fill="white"/>
<path d="M995.607 32.2834L849.754 83.99L849.927 84.479L995.781 32.7724L995.607 32.2834Z" fill="white"/>
<path d="M933 127.841L932.56 128.117L1024.76 275.148L1025.2 274.872L933 127.841Z" fill="white"/>
<path d="M995.482 32.4219L932.693 128.008L933.127 128.293L995.915 32.7067L995.482 32.4219Z" fill="white"/>
<path d="M1194.25 -146.338L1194.62 -145.974L995.882 32.729L995.516 32.3653L1194.25 -146.338Z" fill="white"/>
<path d="M1172.65 -48.5654L1172.15 -48.4581L1200.2 84.2263L1200.71 84.119L1172.65 -48.5654Z" fill="white"/>
<path d="M1172.29 -48.7131L995.565 32.2371L995.781 32.7088L1172.51 -48.2414L1172.29 -48.7131Z" fill="white"/>
<path d="M1309.31 -22.7907L1200.32 84.0946L1200.68 84.465L1309.67 -22.4203L1309.31 -22.7907Z" fill="white"/>
<path d="M1309.73 -22.7137L1309.29 -22.4361L1367.88 70.0616L1368.32 69.784L1309.73 -22.7137Z" fill="white"/>
<path d="M1368.34 69.9729L1367.83 70.0526L1383.29 169.559L1383.8 169.479L1368.34 69.9729Z" fill="white"/>
<path d="M1368.06 69.7277L1200.43 84.0987L1200.47 84.6157L1368.1 70.2447L1368.06 69.7277Z" fill="white"/>
<path d="M1465.85 108.663L1465.64 109.136L1527.91 137.132L1528.12 136.659L1465.85 108.663Z" fill="white"/>
<path d="M1528.05 136.619L1527.86 137.103L1639.6 179.882L1639.78 179.397L1528.05 136.619Z" fill="white"/>
<path d="M1754.77 100.816L1639.62 179.543L1639.91 179.971L1755.06 101.244L1754.77 100.816Z" fill="white"/>
<path d="M1721.14 -2.81595L1721.59 -2.55935L1702.59 65.288L1702.14 65.0286L1721.14 -2.81595Z" fill="white"/>
<path d="M1702.17 65.0459L1639.49 179.534L1639.94 179.783L1702.62 65.295L1702.17 65.0459Z" fill="white"/>
<path d="M1968.1 89.1482L1968.26 89.6417L1754.91 101.109L1754.75 100.616L1968.1 89.1482Z" fill="white"/>
<path d="M1968.15 89.1369L1968.21 89.6529L1785.72 40.4353L1785.66 39.9193L1968.15 89.1369Z" fill="white"/>
<path d="M1721.59 -2.82722L1785.91 40.0405L1785.47 40.3168L1721.15 -2.5509L1721.59 -2.82722Z" fill="white"/>
<path d="M1785.51 39.9943L1639.57 179.506L1639.93 179.881L1785.87 40.3693L1785.51 39.9943Z" fill="white"/>
<path d="M1507.75 55.6921L1507.39 56.0708L1639.59 179.908L1639.94 179.529L1507.75 55.6921Z" fill="white"/>
<path d="M1507.5 55.6988L1368.06 69.7398L1368.11 70.256L1507.55 56.215L1507.5 55.6988Z" fill="white"/>
<path d="M1721.24 -2.91182L1721.49 -2.4635L1602.57 66.8416L1602.32 66.3933L1721.24 -2.91182Z" fill="white"/>
<path d="M1567.04 -61.3442L1567.49 -61.0792L1507.75 55.9661L1507.31 55.7039L1567.04 -61.3442Z" fill="white"/>
<path d="M1721.39 -2.94565L1968.21 89.1369L1968.15 89.6529L1721.33 -2.42966L1721.39 -2.94565Z" fill="white"/>
<path d="M1401.77 -0.558991L1367.78 69.7353L1368.25 69.9611L1402.23 -0.33318L1401.77 -0.558991Z" fill="white"/>
<path d="M1507.79 55.889L1507.29 56.016L1527.75 137.071L1528.26 136.944L1507.79 55.889Z" fill="white"/>
<path d="M1567.51 -61.2935L1602.69 66.5343L1602.2 66.6979L1567.02 -61.1299L1567.51 -61.2935Z" fill="white"/>
<path d="M1507.54 55.5729L1507.48 56.0883L1602.4 66.8687L1602.46 66.3532L1507.54 55.5729Z" fill="white"/>
<path d="M1602.45 72.4273L1601.96 72.5882L1638.87 185.68L1639.36 185.52L1602.45 72.4273Z" fill="white"/>
<path d="M1507.36 55.711L1465.56 108.761L1465.96 109.082L1507.77 56.0321L1507.36 55.711Z" fill="white"/>
<path d="M1368.2 69.6634L1368 70.1452L1465.65 109.141L1465.84 108.659L1368.2 69.6634Z" fill="white"/>
<path d="M1465.63 108.763L1383.4 169.208L1383.71 169.626L1465.93 109.181L1465.63 108.763Z" fill="white"/>
<path d="M1465.64 108.859L1390.4 232.837L1390.85 233.106L1466.08 109.128L1465.64 108.859Z" fill="white"/>
<path d="M1200.25 84.0026L1138.91 143.22L1139.27 143.593L1200.61 84.3759L1200.25 84.0026Z" fill="white"/>
<path d="M1139.04 143.305L1065.22 169.289L1065.39 169.779L1139.22 143.795L1139.04 143.305Z" fill="white"/>
<path d="M1245.38 136.681L1245.26 137.186L1383.6 169.71L1383.72 169.205L1245.38 136.681Z" fill="white"/>
<path d="M1200.69 84.1374L1200.3 84.4734L1245.05 137.129L1245.44 136.793L1200.69 84.1374Z" fill="white"/>
<path d="M1245.15 136.66L1197.18 148.318L1197.3 148.822L1245.27 137.165L1245.15 136.66Z" fill="white"/>
<path d="M882.331 153.684L881.995 154.08L1024.86 275.366L1025.2 274.97L882.331 153.684Z" fill="white"/>
<path d="M932.707 127.931L882.021 153.69L882.256 154.153L932.942 128.394L932.707 127.931Z" fill="white"/>
<path d="M754.326 117.823L754.297 118.341L932.789 128.321L932.818 127.803L754.326 117.823Z" fill="white"/>
<path d="M1131.31 11.3049L1063.61 175.198L1064.09 175.396L1131.78 11.5021L1131.31 11.3049Z" fill="white"/>
<path d="M1172.21 -48.5901L1132.71 4.46117L1133.13 4.77101L1172.63 -48.2802L1172.21 -48.5901Z" fill="white"/>
<path d="M1132.81 4.25142L995.647 32.2576L995.751 32.766L1132.92 4.75976L1132.81 4.25142Z" fill="white"/>
<path d="M1194.69 -146.158L1200.72 84.2335L1200.2 84.2363L1194.17 -146.155L1194.69 -146.158Z" fill="white"/>
<path d="M1567.14 -61.4373L1567.39 -60.9861L1368.22 70.1209L1367.96 69.6726L1567.14 -61.4373Z" fill="white"/>
<path d="M1567.43 -61.4147L1702.53 64.9553L1702.21 65.3613L1567.1 -61.0087L1567.43 -61.4147Z" fill="white"/>
<path d="M1790.44 34.725L1706.93 59.9505L1707.09 60.4486L1790.59 35.2231L1790.44 34.725Z" fill="white"/>
<path d="M1132.74 4.42346L1065.14 58.8984L1065.46 59.3024L1133.07 4.82746L1132.74 4.42346Z" fill="white"/>
<path d="M995.813 32.3198L995.629 32.8045L1065.21 59.3346L1065.4 58.8499L995.813 32.3198Z" fill="white"/>
<path d="M911.244 8.92945L911.106 9.42952L995.668 32.8173L995.807 32.3172L911.244 8.92945Z" fill="white"/>
<path d="M896.652 -87.9254L911.325 8.98446L910.948 9.33973L896.274 -87.5702L896.652 -87.9254Z" fill="white"/>
<path d="M911.082 8.91608L763.63 42.5517L763.746 43.0575L911.197 9.42192L911.082 8.91608Z" fill="white"/>
<path d="M850.016 84.0551L849.773 84.5138L932.741 128.35L932.983 127.892L850.016 84.0551Z" fill="white"/>
<path d="M763.759 42.5577L763.535 43.0253L849.685 84.4314L849.91 83.9637L763.759 42.5577Z" fill="white"/>
<path d="M849.751 84.0427L754.236 117.922L754.41 118.411L849.924 84.5316L849.751 84.0427Z" fill="white"/>
<path d="M763.949 -22.5989H763.43V42.8263H763.949V-22.5989Z" fill="white"/>
<path d="M594.882 -17.5235L594.369 -17.4432L609.702 80.4727L610.215 80.3925L594.882 -17.5235Z" fill="white"/>
<path d="M289.308 -28.5686L289.097 -28.0946L394.497 18.8101L394.707 18.3361L289.308 -28.5686Z" fill="white"/>
<path d="M168.208 -3.38551L168.258 -2.8667L-61.549 99.1384L-61.5997 98.6195L168.208 -3.38551Z" fill="white"/>
<path d="M168.376 -3.3452L168.099 -2.90657L232.802 37.9659L233.08 37.5273L168.376 -3.3452Z" fill="white"/>
<path d="M394.546 18.3099L232.899 37.5566L232.96 38.0718L394.608 18.8251L394.546 18.3099Z" fill="white"/>
<path d="M450.277 -5.87111L394.479 18.2747L394.686 18.7509L450.483 -5.39497L450.277 -5.87111Z" fill="white"/>
<path d="M-61.5574 98.6195L232.956 37.4859L232.92 38.0047L-61.5912 99.1384L-61.5574 98.6195Z" fill="white"/>
<path d="M365.072 51.1715L364.825 51.628L419.769 81.324L420.016 80.8676L365.072 51.1715Z" fill="white"/>
<path d="M232.969 37.4906L232.916 38.0067L364.936 51.6729L364.989 51.1568L232.969 37.4906Z" fill="white"/>
<path d="M289.01 -28.4865L232.738 37.5857L233.133 37.9221L289.405 -28.1501L289.01 -28.4865Z" fill="white"/>
<path d="M515.05 -13.6307L514.686 -13.2615L609.799 80.6962L610.163 80.3271L515.05 -13.6307Z" fill="white"/>
<path d="M-61.5067 98.628L165.808 76.8149L165.676 77.3168L-61.642 99.1299L-61.5067 98.628Z" fill="white"/>
<path d="M233.188 37.6352L232.695 37.7958L269.572 151.091L270.066 150.93L233.188 37.6352Z" fill="white"/>
<path d="M394.386 18.3636L364.755 51.2152L365.14 51.5627L394.772 18.7111L394.386 18.3636Z" fill="white"/>
<path d="M364.778 51.2557L269.63 150.892L270.005 151.25L365.153 51.614L364.778 51.2557Z" fill="white"/>
<path d="M230.291 38.6153L163.336 77.5425L163.596 77.9887L230.55 39.0615L230.291 38.6153Z" fill="white"/>
<path d="M1785.34 39.9809L1754.47 100.658L1754.93 100.893L1785.81 40.2162L1785.34 39.9809Z" fill="white"/>
<path d="M1197.48 84.2278C1197.48 83.6359 1197.66 83.0571 1197.98 82.5647C1198.31 82.0723 1198.78 81.6884 1199.33 81.4616C1199.87 81.2348 1200.48 81.1753 1201.06 81.2907C1201.64 81.406 1202.17 81.691 1202.59 82.1096C1203.01 82.5282 1203.29 83.0615 1203.41 83.6421C1203.52 84.2227 1203.46 84.8244 1203.24 85.3712C1203.01 85.918 1202.63 86.3852 1202.13 86.7137C1201.64 87.0422 1201.06 87.2173 1200.47 87.2167C1199.68 87.216 1198.92 86.9008 1198.36 86.3405C1197.8 85.7801 1197.48 85.0203 1197.48 84.2278Z" fill="white"/>
<path d="M1242.22 136.888C1242.22 136.296 1242.39 135.718 1242.72 135.225C1243.05 134.733 1243.52 134.349 1244.06 134.122C1244.61 133.895 1245.21 133.836 1245.79 133.951C1246.37 134.067 1246.91 134.352 1247.33 134.77C1247.74 135.189 1248.03 135.722 1248.14 136.303C1248.26 136.883 1248.2 137.485 1247.97 138.032C1247.75 138.578 1247.36 139.046 1246.87 139.374C1246.38 139.703 1245.8 139.878 1245.21 139.877C1244.42 139.876 1243.66 139.561 1243.09 139.001C1242.53 138.441 1242.22 137.681 1242.22 136.888Z" fill="white"/>
<path d="M1380.56 169.244C1380.56 168.653 1380.74 168.074 1381.07 167.582C1381.4 167.09 1381.86 166.707 1382.41 166.48C1382.96 166.254 1383.56 166.195 1384.14 166.31C1384.72 166.426 1385.25 166.71 1385.67 167.129C1386.09 167.547 1386.37 168.08 1386.49 168.661C1386.61 169.241 1386.55 169.842 1386.32 170.389C1386.09 170.936 1385.71 171.403 1385.22 171.732C1384.73 172.061 1384.15 172.236 1383.56 172.236C1382.76 172.236 1382 171.921 1381.44 171.36C1380.88 170.799 1380.56 170.038 1380.56 169.244Z" fill="white"/>
<path d="M1462.74 108.892C1462.74 108.3 1462.92 107.722 1463.25 107.23C1463.58 106.738 1464.04 106.354 1464.59 106.128C1465.14 105.901 1465.74 105.842 1466.32 105.957C1466.9 106.073 1467.43 106.358 1467.85 106.776C1468.27 107.195 1468.55 107.728 1468.67 108.308C1468.78 108.888 1468.73 109.49 1468.5 110.037C1468.27 110.583 1467.89 111.05 1467.4 111.379C1466.91 111.708 1466.33 111.883 1465.74 111.883C1465.34 111.884 1464.95 111.807 1464.59 111.656C1464.23 111.506 1463.9 111.286 1463.62 111.008C1463.34 110.73 1463.12 110.4 1462.97 110.037C1462.82 109.674 1462.74 109.285 1462.74 108.892Z" fill="white"/>
<path d="M1525.01 136.888C1525.01 136.296 1525.19 135.718 1525.51 135.225C1525.84 134.733 1526.31 134.349 1526.86 134.122C1527.4 133.895 1528 133.836 1528.59 133.951C1529.17 134.067 1529.7 134.352 1530.12 134.77C1530.54 135.189 1530.82 135.722 1530.94 136.303C1531.05 136.883 1530.99 137.485 1530.77 138.032C1530.54 138.578 1530.16 139.046 1529.66 139.374C1529.17 139.703 1528.59 139.878 1528 139.877C1527.21 139.876 1526.45 139.561 1525.89 139.001C1525.33 138.441 1525.01 137.681 1525.01 136.888Z" fill="white"/>
<path d="M1636.74 179.669C1636.74 179.077 1636.92 178.499 1637.25 178.007C1637.57 177.515 1638.04 177.131 1638.59 176.905C1639.13 176.678 1639.74 176.619 1640.32 176.734C1640.9 176.85 1641.43 177.135 1641.85 177.553C1642.27 177.972 1642.55 178.505 1642.67 179.085C1642.78 179.665 1642.72 180.267 1642.5 180.814C1642.27 181.36 1641.89 181.827 1641.39 182.156C1640.9 182.485 1640.32 182.66 1639.73 182.66C1639.34 182.661 1638.95 182.584 1638.59 182.433C1638.22 182.283 1637.89 182.063 1637.62 181.785C1637.34 181.507 1637.12 181.177 1636.97 180.814C1636.82 180.451 1636.74 180.062 1636.74 179.669Z" fill="white"/>
<path d="M1699.39 65.1583C1699.39 64.5665 1699.56 63.9878 1699.89 63.4954C1700.22 63.0031 1700.68 62.6192 1701.23 62.3923C1701.78 62.1654 1702.38 62.1058 1702.96 62.2209C1703.54 62.336 1704.07 62.6207 1704.49 63.039C1704.91 63.4573 1705.2 63.9904 1705.31 64.5708C1705.43 65.1512 1705.37 65.7529 1705.14 66.2997C1704.92 66.8465 1704.53 67.3139 1704.04 67.6428C1703.55 67.9716 1702.97 68.1471 1702.38 68.1471C1701.58 68.1472 1700.82 67.8324 1700.26 67.2719C1699.7 66.7115 1699.39 65.9512 1699.39 65.1583Z" fill="white"/>
<path d="M1599.45 66.6161C1599.45 66.0242 1599.63 65.4457 1599.96 64.9537C1600.29 64.4616 1600.75 64.0782 1601.3 63.8518C1601.85 63.6255 1602.45 63.5664 1603.03 63.6821C1603.61 63.7977 1604.14 64.0829 1604.56 64.5016C1604.98 64.9203 1605.26 65.4536 1605.38 66.0342C1605.5 66.6147 1605.44 67.2163 1605.21 67.7629C1604.98 68.3095 1604.6 68.7765 1604.11 69.1049C1603.61 69.4333 1603.03 69.6083 1602.44 69.6078C1601.65 69.607 1600.89 69.2915 1600.33 68.7305C1599.77 68.1695 1599.45 67.409 1599.45 66.6161Z" fill="white"/>
<path d="M1504.55 55.8364C1504.55 55.2446 1504.72 54.6659 1505.05 54.1735C1505.38 53.6812 1505.84 53.2973 1506.39 53.0704C1506.94 52.8436 1507.54 52.7839 1508.12 52.899C1508.7 53.0141 1509.23 53.2989 1509.65 53.7171C1510.07 54.1354 1510.36 54.6685 1510.47 55.2489C1510.59 55.8293 1510.53 56.431 1510.3 56.9778C1510.08 57.5246 1509.69 57.992 1509.2 58.3209C1508.71 58.6497 1508.13 58.8253 1507.54 58.8253C1506.74 58.8253 1505.98 58.5105 1505.42 57.95C1504.86 57.3896 1504.55 56.6294 1504.55 55.8364Z" fill="white"/>
<path d="M1399.09 -0.396645C1399.09 -0.988465 1399.26 -1.56716 1399.59 -2.05951C1399.92 -2.55186 1400.39 -2.93575 1400.93 -3.16262C1401.48 -3.38949 1402.08 -3.44913 1402.66 -3.33402C1403.24 -3.2189 1403.78 -2.93419 1404.2 -2.5159C1404.61 -2.09762 1404.9 -1.56457 1405.02 -0.984161C1405.13 -0.403753 1405.07 0.197933 1404.85 0.744757C1404.62 1.29158 1404.24 1.75899 1403.74 2.08784C1403.25 2.4167 1402.67 2.59222 1402.08 2.59222C1401.29 2.59222 1400.53 2.27741 1399.97 1.71697C1399.41 1.15653 1399.09 0.396312 1399.09 -0.396645Z" fill="white"/>
<path d="M1365.1 69.8982C1365.1 69.307 1365.28 68.7292 1365.6 68.2377C1365.93 67.7461 1366.4 67.3631 1366.95 67.1368C1367.49 66.9106 1368.09 66.8514 1368.67 66.9667C1369.25 67.0821 1369.78 67.3667 1370.2 67.7847C1370.62 68.2027 1370.91 68.7353 1371.02 69.3151C1371.14 69.8949 1371.08 70.4958 1370.85 71.042C1370.62 71.5881 1370.24 72.0549 1369.75 72.3833C1369.26 72.7118 1368.68 72.8871 1368.09 72.8871C1367.3 72.8871 1366.54 72.5722 1365.98 72.0116C1365.42 71.4511 1365.1 70.6909 1365.1 69.8982Z" fill="white"/>
<path d="M1129.88 4.57163C1129.88 3.98061 1130.06 3.40303 1130.39 2.91188C1130.72 2.42073 1131.18 2.03807 1131.73 1.81228C1132.28 1.58649 1132.88 1.5277 1133.46 1.64335C1134.04 1.75899 1134.57 2.04388 1134.99 2.46199C1135.4 2.88011 1135.69 3.41269 1135.8 3.99239C1135.92 4.5721 1135.86 5.1729 1135.63 5.71888C1135.41 6.26486 1135.02 6.73151 1134.53 7.0598C1134.04 7.3881 1133.46 7.56332 1132.87 7.56332C1132.48 7.56332 1132.09 7.48592 1131.73 7.33554C1131.36 7.18516 1131.03 6.96474 1130.76 6.6869C1130.48 6.40905 1130.26 6.07924 1130.11 5.71629C1129.96 5.35333 1129.88 4.96437 1129.88 4.57163Z" fill="white"/>
<path d="M992.71 32.5458C992.711 31.9547 992.886 31.3771 993.215 30.886C993.544 30.3949 994.011 30.0122 994.557 29.7864C995.103 29.5606 995.704 29.5018 996.284 29.6175C996.863 29.7331 997.396 30.018 997.813 30.4361C998.231 30.8542 998.516 31.3868 998.631 31.9665C998.746 32.5462 998.686 33.147 998.46 33.693C998.234 34.239 997.851 34.7056 997.359 35.0339C996.868 35.3622 996.29 35.5375 995.699 35.5375C995.306 35.5375 994.917 35.46 994.555 35.3097C994.192 35.1593 993.862 34.9389 993.585 34.661C993.307 34.3832 993.087 34.0534 992.937 33.6904C992.787 33.3275 992.71 32.9385 992.71 32.5458Z" fill="white"/>
<path d="M908.148 9.1621C908.148 8.57096 908.323 7.99307 908.651 7.50156C908.98 7.01004 909.447 6.62696 909.993 6.40074C910.539 6.17451 911.14 6.11532 911.72 6.23065C912.299 6.34597 912.832 6.63064 913.25 7.04864C913.668 7.46664 913.953 7.99921 914.068 8.57899C914.183 9.15877 914.124 9.75973 913.898 10.3059C913.672 10.852 913.289 11.3188 912.797 11.6472C912.306 11.9757 911.728 12.151 911.137 12.151C910.744 12.151 910.355 12.0737 909.993 11.9234C909.63 11.7732 909.301 11.5531 909.023 11.2755C908.746 10.998 908.525 10.6685 908.375 10.3059C908.225 9.94325 908.148 9.5546 908.148 9.1621Z" fill="white"/>
<path d="M929.817 128.066C929.816 127.474 929.991 126.895 930.32 126.403C930.648 125.91 931.115 125.526 931.662 125.3C932.208 125.073 932.81 125.013 933.391 125.128C933.971 125.243 934.504 125.528 934.923 125.946C935.342 126.365 935.627 126.898 935.743 127.478C935.858 128.058 935.799 128.66 935.573 129.207C935.346 129.754 934.963 130.221 934.471 130.55C933.979 130.879 933.4 131.054 932.809 131.054C932.416 131.055 932.027 130.978 931.664 130.828C931.301 130.678 930.971 130.458 930.693 130.18C930.415 129.902 930.195 129.573 930.045 129.21C929.894 128.847 929.817 128.458 929.817 128.066Z" fill="white"/>
<path d="M879.139 153.826C879.139 153.235 879.314 152.657 879.642 152.166C879.971 151.674 880.438 151.291 880.984 151.065C881.53 150.839 882.131 150.779 882.711 150.895C883.29 151.01 883.823 151.295 884.241 151.713C884.659 152.131 884.944 152.663 885.059 153.243C885.174 153.823 885.115 154.424 884.889 154.97C884.663 155.516 884.28 155.983 883.788 156.311C883.297 156.64 882.719 156.815 882.128 156.815C881.335 156.815 880.575 156.5 880.014 155.94C879.454 155.379 879.139 154.619 879.139 153.826Z" fill="white"/>
<path d="M751.325 118.087C751.324 117.495 751.499 116.916 751.828 116.424C752.156 115.931 752.624 115.547 753.17 115.32C753.717 115.094 754.319 115.034 754.9 115.149C755.48 115.265 756.014 115.55 756.432 115.968C756.851 116.387 757.136 116.92 757.251 117.501C757.366 118.081 757.307 118.683 757.08 119.23C756.853 119.777 756.469 120.244 755.977 120.573C755.485 120.901 754.906 121.076 754.314 121.076C753.521 121.075 752.762 120.76 752.201 120.199C751.641 119.639 751.326 118.879 751.325 118.087Z" fill="white"/>
<path d="M694.531 87.9893C694.531 87.3982 694.706 86.8203 695.035 86.3288C695.363 85.8372 695.83 85.4542 696.376 85.2279C696.922 85.0017 697.523 84.9425 698.103 85.0579C698.683 85.1732 699.215 85.4578 699.633 85.8759C700.051 86.2939 700.336 86.8264 700.451 87.4062C700.567 87.986 700.507 88.5869 700.281 89.1331C700.055 89.6792 699.672 90.146 699.18 90.4745C698.689 90.8029 698.111 90.9782 697.52 90.9782C697.127 90.9785 696.738 90.9015 696.376 90.7514C696.013 90.6013 695.683 90.3812 695.405 90.1036C695.128 89.826 694.908 89.4963 694.758 89.1335C694.608 88.7707 694.531 88.3819 694.531 87.9893Z" fill="white"/>
<path d="M760.712 42.8235C760.712 42.2317 760.887 41.6532 761.216 41.1611C761.545 40.6691 762.012 40.2857 762.559 40.0593C763.106 39.8329 763.708 39.7739 764.288 39.8895C764.869 40.0052 765.402 40.2904 765.82 40.7091C766.238 41.1278 766.523 41.6611 766.638 42.2416C766.753 42.8221 766.693 43.4238 766.467 43.9704C766.24 44.517 765.856 44.984 765.364 45.3124C764.871 45.6408 764.293 45.8158 763.701 45.8152C762.908 45.8145 762.147 45.4989 761.587 44.938C761.027 44.377 760.712 43.6165 760.712 42.8235Z" fill="white"/>
<path d="M606.965 80.4551C606.965 79.8632 607.14 79.2844 607.468 78.7919C607.797 78.2995 608.264 77.9156 608.811 77.6889C609.358 77.4621 609.959 77.4026 610.54 77.5179C611.121 77.6333 611.654 77.9183 612.072 78.3368C612.491 78.7554 612.776 79.2887 612.891 79.8693C613.007 80.4499 612.947 81.0517 612.72 81.5984C612.494 82.1452 612.11 82.6124 611.617 82.9409C611.125 83.2695 610.546 83.4445 609.954 83.444C609.162 83.4432 608.402 83.1281 607.842 82.5677C607.281 82.0074 606.966 81.2476 606.965 80.4551Z" fill="white"/>
<path d="M510.261 70.6398C510.261 70.0481 510.437 69.4697 510.766 68.9777C511.094 68.4857 511.562 68.1022 512.108 67.8758C512.655 67.6494 513.256 67.5901 513.837 67.7056C514.417 67.821 514.95 68.1059 515.368 68.5243C515.787 68.9427 516.072 69.4758 516.187 70.0561C516.303 70.6364 516.243 71.238 516.017 71.7846C515.791 72.3313 515.407 72.7985 514.915 73.1273C514.423 73.456 513.845 73.6314 513.253 73.6314C512.46 73.6314 511.699 73.3163 511.138 72.7552C510.577 72.1941 510.261 71.4332 510.261 70.6398Z" fill="white"/>
<path d="M391.615 18.5601C391.615 17.969 391.79 17.3911 392.118 16.8996C392.447 16.4081 392.913 16.025 393.46 15.7988C394.006 15.5725 394.607 15.5133 395.186 15.6287C395.766 15.744 396.299 16.0287 396.717 16.4467C397.135 16.8647 397.419 17.3972 397.535 17.977C397.65 18.5568 397.591 19.1578 397.365 19.7039C397.138 20.25 396.755 20.7168 396.264 21.0453C395.772 21.3737 395.195 21.549 394.603 21.549C394.211 21.5494 393.822 21.4723 393.459 21.3222C393.096 21.1722 392.767 20.952 392.489 20.6744C392.211 20.3968 391.991 20.0671 391.841 19.7043C391.691 19.3416 391.614 18.9527 391.615 18.5601Z" fill="white"/>
<path d="M416.913 81.1093C416.913 80.5176 417.088 79.9392 417.417 79.4472C417.746 78.9552 418.213 78.5717 418.76 78.3453C419.306 78.1189 419.908 78.0596 420.488 78.1751C421.068 78.2905 421.601 78.5754 422.02 78.9938C422.438 79.4122 422.723 79.9453 422.839 80.5256C422.954 81.106 422.895 81.7075 422.668 82.2541C422.442 82.8008 422.058 83.268 421.567 83.5968C421.075 83.9255 420.496 84.101 419.904 84.101C419.111 84.101 418.35 83.7858 417.789 83.2247C417.228 82.6637 416.913 81.9027 416.913 81.1093Z" fill="white"/>
<path d="M361.968 51.4123C361.968 50.8204 362.143 50.2416 362.471 49.7492C362.8 49.2567 363.267 48.8729 363.814 48.6461C364.361 48.4193 364.962 48.3598 365.543 48.4751C366.124 48.5905 366.657 48.8755 367.075 49.2941C367.494 49.7126 367.779 50.2459 367.894 50.8265C368.01 51.4071 367.95 52.0089 367.723 52.5557C367.497 53.1024 367.113 53.5696 366.62 53.8982C366.128 54.2267 365.549 54.4017 364.957 54.4012C364.165 54.4004 363.405 54.0853 362.845 53.5249C362.284 52.9646 361.969 52.2048 361.968 51.4123Z" fill="white"/>
<path d="M229.948 37.7453C229.948 37.1535 230.123 36.5749 230.452 36.0829C230.781 35.5908 231.248 35.2074 231.795 34.981C232.342 34.7547 232.944 34.6956 233.524 34.8113C234.104 34.9269 234.637 35.2121 235.056 35.6308C235.474 36.0495 235.759 36.5828 235.874 37.1634C235.989 37.7439 235.929 38.3455 235.702 38.8921C235.476 39.4387 235.092 39.9057 234.599 40.2341C234.107 40.5625 233.528 40.7375 232.936 40.737C232.144 40.7362 231.383 40.4207 230.823 39.8597C230.262 39.2987 229.948 38.5382 229.948 37.7453Z" fill="white"/>
<path d="M266.818 151.054C266.818 150.463 266.993 149.884 267.322 149.392C267.651 148.9 268.119 148.517 268.665 148.29C269.212 148.064 269.814 148.005 270.394 148.12C270.975 148.236 271.508 148.521 271.926 148.94C272.344 149.359 272.629 149.892 272.744 150.473C272.859 151.053 272.8 151.655 272.573 152.201C272.346 152.748 271.962 153.215 271.47 153.543C270.977 153.872 270.399 154.047 269.807 154.046C269.414 154.046 269.025 153.969 268.662 153.818C268.299 153.668 267.97 153.448 267.692 153.17C267.415 152.892 267.195 152.562 267.045 152.199C266.895 151.836 266.818 151.447 266.818 151.054Z" fill="white"/>
<path d="M162.752 77.0658C162.751 76.4746 162.926 75.8965 163.253 75.4044C163.581 74.9124 164.047 74.5285 164.593 74.3012C165.139 74.074 165.74 74.0135 166.32 74.1275C166.9 74.2414 167.434 74.5248 167.853 74.9416C168.272 75.3585 168.558 75.8903 168.676 76.4697C168.793 77.0492 168.736 77.6504 168.512 78.1975C168.287 78.7445 167.906 79.2129 167.416 79.5435C166.926 79.874 166.349 80.0519 165.757 80.0547C165.364 80.0566 164.973 79.9806 164.609 79.8313C164.244 79.682 163.913 79.4621 163.634 79.1844C163.355 78.9068 163.133 78.5767 162.981 78.2131C162.83 77.8495 162.752 77.4596 162.752 77.0658Z" fill="white"/>
<path d="M576.304 196.595C576.304 196.003 576.479 195.425 576.807 194.932C577.135 194.44 577.602 194.056 578.149 193.829C578.696 193.602 579.297 193.543 579.878 193.658C580.458 193.773 580.992 194.058 581.41 194.476C581.829 194.894 582.114 195.427 582.23 196.008C582.346 196.588 582.286 197.19 582.06 197.737C581.834 198.283 581.45 198.751 580.958 199.08C580.466 199.409 579.888 199.584 579.296 199.584C578.503 199.584 577.742 199.269 577.181 198.709C576.62 198.148 576.305 197.388 576.304 196.595Z" fill="white"/>
<path d="M1062.3 169.402C1062.3 168.811 1062.47 168.233 1062.8 167.742C1063.13 167.25 1063.6 166.867 1064.14 166.641C1064.69 166.415 1065.29 166.355 1065.87 166.471C1066.45 166.586 1066.98 166.871 1067.4 167.289C1067.82 167.707 1068.1 168.239 1068.22 168.819C1068.33 169.399 1068.27 170 1068.05 170.546C1067.82 171.092 1067.44 171.559 1066.95 171.887C1066.46 172.216 1065.88 172.391 1065.29 172.391C1064.89 172.391 1064.5 172.314 1064.14 172.164C1063.78 172.013 1063.45 171.793 1063.17 171.516C1062.9 171.238 1062.67 170.909 1062.52 170.546C1062.37 170.183 1062.3 169.795 1062.3 169.402Z" fill="white"/>
<path d="M1136.14 143.47C1136.14 142.878 1136.32 142.299 1136.64 141.807C1136.97 141.314 1137.44 140.93 1137.99 140.704C1138.53 140.477 1139.14 140.417 1139.72 140.532C1140.3 140.647 1140.83 140.932 1141.25 141.35C1141.67 141.769 1141.95 142.302 1142.07 142.882C1142.18 143.462 1142.12 144.064 1141.9 144.611C1141.67 145.158 1141.29 145.625 1140.8 145.954C1140.3 146.283 1139.73 146.458 1139.13 146.458C1138.34 146.458 1137.58 146.144 1137.02 145.583C1136.46 145.023 1136.14 144.262 1136.14 143.47Z" fill="white"/>
<path d="M1022 275.104C1022 274.512 1022.18 273.933 1022.51 273.441C1022.84 272.948 1023.3 272.564 1023.85 272.338C1024.4 272.111 1025 272.051 1025.58 272.167C1026.16 272.282 1026.69 272.567 1027.11 272.986C1027.53 273.404 1027.81 273.938 1027.93 274.518C1028.05 275.099 1027.99 275.7 1027.76 276.247C1027.53 276.794 1027.15 277.261 1026.66 277.59C1026.16 277.918 1025.58 278.093 1024.99 278.093C1024.2 278.092 1023.44 277.777 1022.88 277.216C1022.32 276.656 1022 275.896 1022 275.104Z" fill="white"/>
<path d="M1718.37 -2.68908C1718.37 -3.28018 1718.55 -3.85802 1718.88 -4.34969C1719.21 -4.84136 1719.67 -5.22482 1720.22 -5.45166C1720.76 -5.67851 1721.36 -5.73858 1721.94 -5.62428C1722.52 -5.50998 1723.06 -5.22644 1723.48 -4.80945C1723.89 -4.39247 1724.18 -3.86072 1724.3 -3.28133C1724.42 -2.70193 1724.36 -2.10084 1724.13 -1.55394C1723.91 -1.00704 1723.53 -0.538845 1723.04 -0.208425C1722.55 0.121995 1721.97 0.299824 1721.38 0.302609C1720.99 0.304466 1720.59 0.228463 1720.23 0.078948C1719.87 -0.0705671 1719.53 -0.290641 1719.26 -0.568631C1718.98 -0.84662 1718.75 -1.17705 1718.6 -1.54095C1718.45 -1.90484 1718.37 -2.29501 1718.37 -2.68908Z" fill="white"/>
<path d="M1782.7 40.1787C1782.7 39.5869 1782.87 39.0082 1783.2 38.5158C1783.53 38.0235 1784 37.6396 1784.54 37.4127C1785.09 37.1858 1785.69 37.1262 1786.27 37.2413C1786.85 37.3564 1787.39 37.6411 1787.81 38.0594C1788.22 38.4777 1788.51 39.0107 1788.63 39.5912C1788.74 40.1716 1788.68 40.7732 1788.46 41.3201C1788.23 41.8669 1787.85 42.3343 1787.35 42.6631C1786.86 42.992 1786.28 43.1675 1785.69 43.1675C1784.9 43.1675 1784.14 42.8527 1783.58 42.2923C1783.02 41.7318 1782.7 40.9716 1782.7 40.1787Z" fill="white"/>
<path d="M1751.83 100.864C1751.83 100.272 1752.01 99.6939 1752.34 99.2019C1752.67 98.7099 1753.13 98.3265 1753.68 98.1C1754.23 97.8736 1754.83 97.8144 1755.41 97.9298C1755.99 98.0452 1756.52 98.3302 1756.94 98.7486C1757.36 99.167 1757.64 99.7 1757.76 100.28C1757.87 100.861 1757.81 101.462 1757.59 102.009C1757.36 102.556 1756.98 103.023 1756.49 103.352C1755.99 103.68 1755.42 103.856 1754.82 103.856C1754.03 103.856 1753.27 103.541 1752.71 102.979C1752.15 102.418 1751.83 101.657 1751.83 100.864Z" fill="white"/>
<path d="M1387.6 232.918C1387.6 232.327 1387.77 231.748 1388.1 231.256C1388.43 230.764 1388.9 230.381 1389.44 230.154C1389.99 229.928 1390.59 229.869 1391.17 229.984C1391.75 230.1 1392.29 230.385 1392.7 230.804C1393.12 231.223 1393.41 231.756 1393.52 232.337C1393.64 232.917 1393.58 233.519 1393.35 234.065C1393.12 234.612 1392.74 235.079 1392.25 235.407C1391.76 235.736 1391.18 235.911 1390.58 235.91C1390.19 235.91 1389.8 235.833 1389.44 235.682C1389.08 235.532 1388.75 235.312 1388.47 235.034C1388.19 234.756 1387.97 234.426 1387.82 234.063C1387.67 233.7 1387.6 233.311 1387.6 232.918Z" fill="white"/>
<path d="M1194.25 148.551C1194.25 147.959 1194.43 147.38 1194.76 146.888C1195.09 146.396 1195.55 146.013 1196.1 145.787C1196.65 145.56 1197.25 145.501 1197.83 145.616C1198.41 145.732 1198.94 146.017 1199.36 146.435C1199.78 146.854 1200.06 147.387 1200.18 147.967C1200.29 148.547 1200.24 149.149 1200.01 149.695C1199.78 150.242 1199.4 150.709 1198.91 151.038C1198.41 151.367 1197.84 151.542 1197.24 151.542C1196.45 151.542 1195.69 151.227 1195.13 150.666C1194.57 150.105 1194.25 149.344 1194.25 148.551Z" fill="white"/>
</g>
<path d="M1389.75 -100.758L1389.42 -100.302L1562.61 25.1617L1562.95 24.705L1389.75 -100.758Z" fill="white"/>
<path d="M1261.14 17.4401L1189.22 66.4806L1189.54 66.9465L1261.46 17.906L1261.14 17.4401Z" fill="white"/>
<path d="M1389.57 -100.563L1261.13 17.4566L1261.51 17.8719L1389.95 -100.148L1389.57 -100.563Z" fill="white"/>
<path d="M1199.34 -15.1577L1189.12 66.6105L1189.68 66.6805L1199.9 -15.0877L1199.34 -15.1577Z" fill="white"/>
<path d="M1461.61 36.1345L1461.17 36.4933L1529.5 119.347L1529.93 118.988L1461.61 36.1345Z" fill="white"/>
<path d="M1389.94 -100.587L1389.44 -100.325L1461.2 36.5278L1461.7 36.266L1389.94 -100.587Z" fill="white"/>
<path d="M1562.68 24.9787L1529.6 119.222L1530.14 119.408L1563.21 25.1655L1562.68 24.9787Z" fill="white"/>
<path d="M515.903 -71.1937L515.665 -70.6823L714.614 21.8354L714.851 21.324L515.903 -71.1937Z" fill="white"/>
<path d="M861.491 -71.1469L714.653 21.4297L714.953 21.9068L861.792 -70.6698L861.491 -71.1469Z" fill="white"/>
<path d="M718.067 -48.2453L714.576 21.6352L715.139 21.6634L718.63 -48.2172L718.067 -48.2453Z" fill="white"/>
<path d="M1189.34 66.2609L937.254 77.4874L937.279 78.0508L1189.36 66.8243L1189.34 66.2609Z" fill="white"/>
<path d="M861.917 -70.9951L861.414 -70.7395L937.016 77.9578L937.518 77.7022L861.917 -70.9951Z" fill="white"/>
<path d="M861.933 -70.903H861.369V48.9676H861.933V-70.903Z" fill="white"/>
<path d="M715.006 21.4645L714.576 21.8294L788.008 108.387L788.438 108.022L715.006 21.4645Z" fill="white"/>
<path d="M937.047 77.7187L899.274 160.487L899.787 160.721L937.56 77.9529L937.047 77.7187Z" fill="white"/>
<path d="M1356.31 25.41L1189.26 66.2259L1189.39 66.7737L1356.44 25.9579L1356.31 25.41Z" fill="white"/>
<path d="M1389.46 -100.503L1356.19 25.6968L1356.74 25.8406L1390.01 -100.359L1389.46 -100.503Z" fill="white"/>
<path d="M1356.48 25.4679L1356.21 25.9643L1529.6 119.481L1529.87 118.985L1356.48 25.4679Z" fill="white"/>
<path d="M1189.61 66.538L1189.19 66.9127L1272.7 160.841L1273.12 160.467L1189.61 66.538Z" fill="white"/>
<path d="M1189.01 66.413L1117.1 197.422L1117.6 197.693L1189.5 66.6843L1189.01 66.413Z" fill="white"/>
<path d="M937.427 77.568L937.115 78.0376L1117.28 197.876L1117.59 197.407L937.427 77.568Z" fill="white"/>
<path d="M1356.15 25.6036L1272.63 160.411L1273.11 160.708L1356.63 25.9006L1356.15 25.6036Z" fill="white"/>
<path d="M1725.9 -51.0619L1562.78 24.8601L1563.02 25.3713L1726.13 -50.5506L1725.9 -51.0619Z" fill="white"/>
<path d="M1726.16 -51.1488L1725.84 -50.6892L1838.91 29.6934L1839.23 29.2338L1726.16 -51.1488Z" fill="white"/>
<path d="M1563.14 24.9307L1562.61 25.1422L1590.11 93.1041L1590.64 92.8926L1563.14 24.9307Z" fill="white"/>
<path d="M1590.65 92.9293L1590.09 92.9984L1606.14 222.91L1606.7 222.841L1590.65 92.9293Z" fill="white"/>
<path d="M1261.31 17.2799L1261.26 17.8417L1356.4 26.0315L1356.45 25.4697L1261.31 17.2799Z" fill="white"/>
<path d="M1199.67 -15.3863L1199.41 -14.888L1261.12 17.8128L1261.38 17.3145L1199.67 -15.3863Z" fill="white"/>
<path d="M1562.84 24.6923L1461.42 36.0513L1461.48 36.6117L1562.91 25.2528L1562.84 24.6923Z" fill="white"/>
<path d="M1356.53 25.483L1356.47 26.0441L1461.54 36.7165L1461.59 36.1555L1356.53 25.483Z" fill="white"/>
<path d="M905.701 -185.85L905.141 -185.782L936.986 77.7575L937.546 77.6898L905.701 -185.85Z" fill="white"/>
<path d="M899.408 160.233L899.313 160.789L1117.29 197.853L1117.38 197.297L899.408 160.233Z" fill="white"/>
<path d="M1095.65 21.4181L937.17 77.5714L937.358 78.103L1095.84 21.9497L1095.65 21.4181Z" fill="white"/>
<path d="M1005.37 -26.131L937.054 77.6652L937.526 77.9752L1005.84 -25.821L1005.37 -26.131Z" fill="white"/>
<path d="M899.304 160.388L716.357 300.565L716.7 301.013L899.647 160.836L899.304 160.388Z" fill="white"/>
<path d="M495.933 113.409L495.568 113.839L716.361 301.019L716.726 300.589L495.933 113.409Z" fill="white"/>
<path d="M745.022 165.772L716.311 300.73L716.863 300.848L745.574 165.889L745.022 165.772Z" fill="white"/>
<path d="M937.017 77.5366L716.334 300.544L716.734 300.94L937.418 77.9333L937.017 77.5366Z" fill="white"/>
<path d="M715.06 21.5331L714.508 21.6498L744.994 165.816L745.545 165.699L715.06 21.5331Z" fill="white"/>
<path d="M937.157 77.6033L745.139 165.557L745.374 166.069L937.392 78.116L937.157 77.6033Z" fill="white"/>
<path d="M596.55 137.605L596.096 137.94L716.309 300.993L716.763 300.659L596.55 137.605Z" fill="white"/>
<path d="M495.816 113.327L495.685 113.875L596.263 138.004L596.394 137.455L495.816 113.327Z" fill="white"/>
<path d="M596.37 137.439L596.266 137.993L745.224 166.085L745.328 165.531L596.37 137.439Z" fill="white"/>
<path d="M714.559 21.3927L596.113 137.505L596.508 137.907L714.954 21.7954L714.559 21.3927Z" fill="white"/>
<path d="M532.889 37.07L532.413 37.3717L596.069 137.871L596.545 137.569L532.889 37.07Z" fill="white"/>
<path d="M516.121 -70.8945L515.564 -70.808L532.359 37.3077L532.916 37.2211L516.121 -70.8945Z" fill="white"/>
<path d="M714.764 21.333L532.627 36.9157L532.675 37.4775L714.813 21.8948L714.764 21.333Z" fill="white"/>
<path d="M237.339 -82.3046L112.287 3.32082L112.605 3.78613L237.658 -81.8393L237.339 -82.3046Z" fill="white"/>
<path d="M169.182 42.1996L118.011 131.983L118.501 132.263L169.671 42.4789L169.182 42.1996Z" fill="white"/>
<path d="M237.248 -82.1866L169.232 42.2544L169.726 42.5249L237.743 -81.9162L237.248 -82.1866Z" fill="white"/>
<path d="M112.378 3.28605L-174.787 98.5905L-174.61 99.1257L112.555 3.82128L112.378 3.28605Z" fill="white"/>
<path d="M78.8785 69.1894L-174.742 98.624L-174.677 99.1842L78.9435 69.7496L78.8785 69.1894Z" fill="white"/>
<path d="M79.1533 69.353L78.6758 69.6529L118.007 132.279L118.484 131.979L79.1533 69.353Z" fill="white"/>
<path d="M237.304 -82.2532L78.7378 69.3287L79.1275 69.7364L237.693 -81.8456L237.304 -82.2532Z" fill="white"/>
<path d="M237.705 -82.2523L237.32 -81.8408L380.955 52.7125L381.341 52.3009L237.705 -82.2523Z" fill="white"/>
<path d="M532.608 37.0001L381.097 52.2298L381.154 52.7909L532.665 37.5612L532.608 37.0001Z" fill="white"/>
<path d="M277.88 40.4925L118.111 131.845L118.391 132.334L278.16 40.9821L277.88 40.4925Z" fill="white"/>
<path d="M381.834 53.9718L317.872 161.828L318.357 162.116L382.319 54.2594L381.834 53.9718Z" fill="white"/>
<path d="M-175.664 98.707L-175.727 99.2653L116.166 131.698L116.228 131.139L-175.664 98.707Z" fill="white"/>
<path d="M118.296 131.854L118.216 132.412L317.454 160.839L317.534 160.281L118.296 131.854Z" fill="white"/>
<path d="M495.656 113.266L317.423 160.258L317.567 160.803L495.8 113.812L495.656 113.266Z" fill="white"/>
<path d="M532.359 37.0485L495.425 113.416L495.932 113.662L532.866 37.294L532.359 37.0485Z" fill="white"/>
<path d="M359.173 -35.6032L358.626 -35.4652L380.862 52.6018L381.408 52.4638L359.173 -35.6032Z" fill="white"/>
<path d="M278.286 40.6704L277.751 40.8469L317.222 160.618L317.758 160.442L278.286 40.6704Z" fill="white"/>
<path d="M278.043 40.4904L277.98 41.0507L381.106 52.7641L381.17 52.2037L278.043 40.4904Z" fill="white"/>
<path d="M237.772 -82.1156L237.236 -81.939L277.741 40.8969L278.277 40.7203L237.772 -82.1156Z" fill="white"/>
<path d="M426.344 -5.31505L380.922 52.3235L381.365 52.6726L426.787 -4.966L426.344 -5.31505Z" fill="white"/>
<path d="M426.661 -5.42014L426.452 -4.89642L532.546 37.474L532.756 36.9503L426.661 -5.42014Z" fill="white"/>
<path d="M781.24 -42.9038L714.59 21.4364L714.982 21.8421L781.631 -42.4981L781.24 -42.9038Z" fill="white"/>
<path d="M666.398 -35.7184L665.968 -35.3532L714.589 21.8569L715.019 21.4917L666.398 -35.7184Z" fill="white"/>
<path d="M861.444 -70.9854L787.934 108.073L788.456 108.287L861.966 -70.7712L861.444 -70.9854Z" fill="white"/>
<path d="M789.695 110.468L746.578 167.958L747.029 168.296L790.147 110.806L789.695 110.468Z" fill="white"/>
<path d="M937.196 77.5994L788.152 107.977L788.265 108.53L937.308 78.152L937.196 77.5994Z" fill="white"/>
<path d="M715.072 21.6015L714.509 21.6051L716.262 300.726L716.826 300.723L715.072 21.6015Z" fill="white"/>
<path d="M532.5 36.9774L317.354 160.342L317.635 160.832L532.781 37.4666L532.5 36.9774Z" fill="white"/>
<path d="M169.613 42.1188L169.261 42.5595L317.304 160.741L317.656 160.3L169.613 42.1188Z" fill="white"/>
<path d="M169.36 42.112L78.8235 69.2397L78.9854 69.7799L169.522 42.6522L169.36 42.112Z" fill="white"/>
<path d="M861.494 48.7995L788.067 108.026L788.421 108.465L861.848 49.2384L861.494 48.7995Z" fill="white"/>
<path d="M861.772 48.7138L861.572 49.2407L937.179 78.0672L937.38 77.5402L861.772 48.7138Z" fill="white"/>
<path d="M937.369 77.5389L937.219 78.0824L1029.1 103.494L1029.25 102.95L937.369 77.5389Z" fill="white"/>
<path d="M1029.29 102.927L1028.88 103.312L1117.18 197.734L1117.59 197.349L1029.29 102.927Z" fill="white"/>
<path d="M1189.28 66.3028L1029.08 102.905L1029.2 103.454L1189.4 66.8525L1189.28 66.3028Z" fill="white"/>
<path d="M1005.79 -26.1981L1005.52 -25.6995L1095.67 21.9293L1095.93 21.4307L1005.79 -26.1981Z" fill="white"/>
<path d="M1095.8 21.3393L1095.56 21.8475L1189.16 66.8361L1189.41 66.3278L1095.8 21.3393Z" fill="white"/>
<path d="M1199.44 -15.3567L1095.65 21.4174L1095.84 21.949L1199.63 -14.8251L1199.44 -15.3567Z" fill="white"/>
<path d="M1189.62 66.6245H1189.06V137.709H1189.62V66.6245Z" fill="white"/>
<path d="M1189.35 137.404L1189.2 137.947L1272.72 160.78L1272.87 160.236L1189.35 137.404Z" fill="white"/>
<path d="M1189.51 137.486L1189.18 137.943L1335.45 243.509L1335.78 243.052L1189.51 137.486Z" fill="white"/>
<path d="M1372.77 132.031L1335.3 243.168L1335.84 243.348L1373.3 132.211L1372.77 132.031Z" fill="white"/>
<path d="M1368.78 135.072L1268.81 163.186L1268.97 163.728L1368.93 135.613L1368.78 135.072Z" fill="white"/>
<path d="M1273.07 160.342L1272.62 160.683L1335.36 243.408L1335.81 243.067L1273.07 160.342Z" fill="white"/>
<path d="M1189.16 137.471L1117.21 197.351L1117.57 197.784L1189.52 137.904L1189.16 137.471Z" fill="white"/>
<path d="M1356.66 25.6471L1356.1 25.7343L1372.76 132.122L1373.32 132.034L1356.66 25.6471Z" fill="white"/>
<path d="M1459.57 127.657L1335.39 243.052L1335.77 243.465L1459.96 128.07L1459.57 127.657Z" fill="white"/>
<path d="M1529.73 118.944L1459.69 127.494L1459.76 128.054L1529.8 119.504L1529.73 118.944Z" fill="white"/>
<path d="M1459.86 127.566L1459.56 128.039L1606.24 223.118L1606.55 222.644L1459.86 127.566Z" fill="white"/>
<path d="M1529.94 118.978L1529.48 119.314L1606.14 222.948L1606.59 222.613L1529.94 118.978Z" fill="white"/>
<path d="M1836.17 116.219L1606.3 222.629L1606.54 223.141L1836.41 116.731L1836.17 116.219Z" fill="white"/>
<path d="M1836.26 116.342L1704.84 143.75L1704.95 144.302L1836.38 116.894L1836.26 116.342Z" fill="white"/>
<path d="M1590.53 92.7575L1590.3 93.2727L1704.81 144.235L1705.04 143.719L1590.53 92.7575Z" fill="white"/>
<path d="M2076.69 92.8722L1836.28 116.445L1836.34 117.006L2076.75 93.4334L2076.69 92.8722Z" fill="white"/>
<path d="M1766.17 71.9055L1765.87 72.3822L1836.17 116.79L1836.47 116.314L1766.17 71.9055Z" fill="white"/>
<path d="M1765.97 71.9852L1590.34 92.8664L1590.4 93.4264L1766.04 72.5452L1765.97 71.9852Z" fill="white"/>
<path d="M1590.3 92.8634L1529.67 119.109L1529.9 119.627L1590.52 93.3809L1590.3 92.8634Z" fill="white"/>
<path d="M1766.1 71.8707L1766.06 72.4334L2076.77 93.2886L2076.81 92.7259L1766.1 71.8707Z" fill="white"/>
<path d="M1562.96 24.7455L1562.69 25.2416L1622.39 57.5077L1622.66 57.0116L1562.96 24.7455Z" fill="white"/>
<path d="M1622.61 57.0142L1622.55 57.5751L1765.99 72.4239L1766.05 71.863L1622.61 57.0142Z" fill="white"/>
<path d="M1704.67 143.657L1606.22 222.643L1606.58 223.083L1705.02 144.097L1704.67 143.657Z" fill="white"/>
<path d="M1765.84 72.0012L1704.71 143.803L1705.14 144.168L1766.27 72.3668L1765.84 72.0012Z" fill="white"/>
<path d="M1459.7 127.639L1373 131.955L1373.03 132.518L1459.72 128.203L1459.7 127.639Z" fill="white"/>
<path d="M1356.65 25.6291L1356.25 26.0303L1459.59 128.119L1459.99 127.717L1356.65 25.6291Z" fill="white"/>
<path d="M1839.03 29.125L1838.88 29.6698L2076.58 93.2289L2076.73 92.6841L1839.03 29.125Z" fill="white"/>
<path d="M1726.19 -51.1616L1725.66 -50.987L1765.73 72.1108L1766.26 71.9362L1726.19 -51.1616Z" fill="white"/>
<path d="M1622.39 57.1368L1590.18 92.8205L1590.6 93.1984L1622.81 57.5147L1622.39 57.1368Z" fill="white"/>
<path d="M1725.61 -51.3047L1622.29 57.0056L1622.7 57.3949L1726.02 -50.9154L1725.61 -51.3047Z" fill="white"/>
<path d="M1831.23 38.2209L1758.48 80.5163L1758.77 81.0013L1831.51 38.7059L1831.23 38.2209Z" fill="white"/>
<path d="M112.187 3.42529L78.6624 69.3639L79.1651 69.6194L112.69 3.68087L112.187 3.42529Z" fill="white"/>
<path d="M718.033 21.6307C718.034 22.274 717.843 22.903 717.486 23.438C717.129 23.9731 716.621 24.3902 716.027 24.6367C715.433 24.8831 714.779 24.9477 714.148 24.8223C713.517 24.697 712.938 24.3873 712.483 23.9325C712.028 23.4776 711.718 22.8981 711.593 22.2671C711.468 21.6362 711.532 20.9823 711.779 20.3881C712.025 19.7939 712.442 19.2862 712.977 18.9292C713.512 18.5722 714.141 18.3819 714.785 18.3825C715.646 18.3825 716.472 18.7247 717.082 19.3339C717.691 19.943 718.033 20.7693 718.033 21.6307Z" fill="white"/>
<path d="M169.446 45.6066C171.24 45.6066 172.694 44.1523 172.694 42.3583C172.694 40.5643 171.24 39.11 169.446 39.11C167.652 39.11 166.197 40.5643 166.197 42.3583C166.197 44.1523 167.652 45.6066 169.446 45.6066Z" fill="white"/>
<path d="M281.266 40.7736C281.267 41.4167 281.076 42.0456 280.719 42.5806C280.363 43.1156 279.855 43.5327 279.261 43.7792C278.667 44.0257 278.013 44.0905 277.382 43.9654C276.752 43.8403 276.172 43.5309 275.717 43.0763C275.262 42.6217 274.952 42.0425 274.826 41.4117C274.701 40.781 274.765 40.1272 275.011 39.5329C275.257 38.9387 275.674 38.4308 276.208 38.0734C276.743 37.7161 277.372 37.5253 278.015 37.5253C278.877 37.5253 279.703 37.8675 280.313 38.4766C280.922 39.0857 281.265 39.9119 281.266 40.7736Z" fill="white"/>
<path d="M317.485 163.794C319.279 163.794 320.733 162.34 320.733 160.546C320.733 158.752 319.279 157.297 317.485 157.297C315.691 157.297 314.237 158.752 314.237 160.546C314.237 162.34 315.691 163.794 317.485 163.794Z" fill="white"/>
<path d="M384.39 52.4894C384.39 53.1318 384.199 53.7595 383.842 54.2933C383.484 54.8271 382.977 55.243 382.383 55.4884C381.79 55.7339 381.137 55.7978 380.507 55.6721C379.877 55.5465 379.298 55.2369 378.844 54.7825C378.39 54.3281 378.081 53.7493 377.956 53.1193C377.831 52.4892 377.896 51.8363 378.141 51.2429C378.387 50.6495 378.804 50.1424 379.338 49.7856C379.872 49.4288 380.5 49.2383 381.142 49.2383C381.569 49.2383 381.992 49.3224 382.386 49.4858C382.78 49.6493 383.138 49.8888 383.44 50.1907C383.742 50.4926 383.981 50.8511 384.144 51.2455C384.307 51.6399 384.391 52.0626 384.39 52.4894Z" fill="white"/>
<path d="M498.974 113.586C498.974 114.229 498.784 114.857 498.427 115.391C498.07 115.925 497.562 116.342 496.969 116.587C496.375 116.833 495.722 116.898 495.092 116.772C494.462 116.647 493.883 116.338 493.429 115.883C492.975 115.429 492.665 114.85 492.54 114.22C492.415 113.59 492.479 112.937 492.725 112.343C492.971 111.75 493.387 111.243 493.921 110.886C494.455 110.529 495.083 110.338 495.726 110.338C496.587 110.338 497.414 110.68 498.023 111.29C498.632 111.899 498.974 112.725 498.974 113.586Z" fill="white"/>
<path d="M535.895 37.2095C535.895 37.852 535.705 38.48 535.348 39.0142C534.991 39.5483 534.483 39.9647 533.89 40.2105C533.296 40.4564 532.643 40.5207 532.013 40.3954C531.383 40.2701 530.804 39.9607 530.35 39.5064C529.896 39.0521 529.586 38.4733 529.461 37.8432C529.336 37.2131 529.4 36.56 529.646 35.9665C529.892 35.3729 530.308 34.8656 530.842 34.5087C531.376 34.1518 532.004 33.9612 532.647 33.9612C533.508 33.9612 534.335 34.3035 534.944 34.9126C535.553 35.5218 535.895 36.348 535.895 37.2095Z" fill="white"/>
<path d="M599.552 137.709C599.552 138.351 599.362 138.979 599.005 139.514C598.648 140.048 598.141 140.464 597.547 140.71C596.954 140.956 596.301 141.02 595.671 140.895C595.04 140.769 594.462 140.46 594.007 140.006C593.553 139.551 593.244 138.973 593.118 138.343C592.993 137.712 593.057 137.059 593.303 136.466C593.549 135.872 593.965 135.365 594.5 135.008C595.034 134.651 595.662 134.461 596.304 134.461C597.166 134.461 597.992 134.803 598.601 135.412C599.21 136.021 599.552 136.847 599.552 137.709Z" fill="white"/>
<path d="M719.778 300.752C719.778 301.394 719.588 302.022 719.231 302.556C718.874 303.091 718.367 303.507 717.773 303.753C717.18 303.999 716.526 304.063 715.896 303.938C715.266 303.812 714.687 303.503 714.233 303.049C713.779 302.594 713.469 302.016 713.344 301.385C713.219 300.755 713.283 300.102 713.529 299.509C713.775 298.915 714.191 298.408 714.725 298.051C715.26 297.694 715.888 297.503 716.53 297.503C717.392 297.503 718.218 297.846 718.827 298.455C719.436 299.064 719.778 299.89 719.778 300.752Z" fill="white"/>
<path d="M748.511 165.799C748.511 166.441 748.32 167.069 747.964 167.603C747.607 168.137 747.099 168.554 746.506 168.8C745.912 169.046 745.259 169.11 744.629 168.984C743.999 168.859 743.42 168.55 742.966 168.096C742.512 167.641 742.202 167.062 742.077 166.432C741.951 165.802 742.016 165.149 742.262 164.556C742.508 163.962 742.924 163.455 743.458 163.098C743.992 162.741 744.62 162.55 745.263 162.55C746.124 162.55 746.95 162.893 747.56 163.502C748.169 164.111 748.511 164.937 748.511 165.799Z" fill="white"/>
<path d="M791.466 108.195C791.466 108.838 791.275 109.467 790.918 110.001C790.561 110.536 790.053 110.953 789.459 111.199C788.865 111.445 788.211 111.509 787.581 111.384C786.95 111.258 786.371 110.949 785.916 110.494C785.461 110.039 785.152 109.46 785.026 108.829C784.901 108.199 784.965 107.545 785.211 106.951C785.457 106.357 785.874 105.849 786.409 105.492C786.943 105.135 787.572 104.944 788.215 104.944C789.077 104.944 789.904 105.287 790.514 105.896C791.124 106.506 791.466 107.333 791.466 108.195Z" fill="white"/>
<path d="M902.703 160.546C902.703 161.189 902.513 161.818 902.156 162.353C901.799 162.888 901.291 163.305 900.697 163.551C900.103 163.798 899.449 163.862 898.818 163.737C898.187 163.612 897.608 163.302 897.153 162.847C896.698 162.392 896.388 161.813 896.263 161.182C896.138 160.551 896.202 159.897 896.449 159.303C896.695 158.709 897.112 158.201 897.647 157.844C898.182 157.487 898.811 157.297 899.455 157.297C900.316 157.297 901.142 157.64 901.751 158.249C902.361 158.858 902.703 159.684 902.703 160.546Z" fill="white"/>
<path d="M940.506 77.7905C940.506 78.4329 940.316 79.061 939.959 79.5951C939.602 80.1293 939.095 80.5457 938.501 80.7915C937.908 81.0374 937.254 81.1017 936.624 80.9763C935.994 80.851 935.415 80.5416 934.961 80.0874C934.507 79.6331 934.198 79.0543 934.072 78.4242C933.947 77.7941 934.011 77.141 934.257 76.5474C934.503 75.9539 934.919 75.4466 935.453 75.0896C935.988 74.7327 936.616 74.5422 937.258 74.5422C938.12 74.5422 938.946 74.8844 939.555 75.4936C940.164 76.1028 940.506 76.929 940.506 77.7905Z" fill="white"/>
<path d="M1032.39 103.199C1032.39 103.842 1032.2 104.471 1031.84 105.006C1031.48 105.541 1030.98 105.958 1030.38 106.204C1029.79 106.451 1029.13 106.516 1028.5 106.391C1027.87 106.265 1027.29 105.956 1026.84 105.501C1026.38 105.047 1026.07 104.468 1025.95 103.837C1025.82 103.206 1025.88 102.552 1026.13 101.958C1026.38 101.364 1026.79 100.856 1027.33 100.499C1027.86 100.141 1028.49 99.9504 1029.13 99.9504C1030 99.9504 1030.82 100.293 1031.43 100.902C1032.04 101.511 1032.39 102.337 1032.39 103.199Z" fill="white"/>
<path d="M1264.48 17.5507C1264.48 18.193 1264.29 18.8207 1263.93 19.3545C1263.58 19.8883 1263.07 20.3042 1262.48 20.5497C1261.88 20.7951 1261.23 20.859 1260.6 20.7334C1259.97 20.6077 1259.39 20.2981 1258.94 19.8437C1258.48 19.3893 1258.17 18.8106 1258.05 18.1805C1257.92 17.5505 1257.99 16.8975 1258.23 16.3041C1258.48 15.7108 1258.9 15.2036 1259.43 14.8468C1259.96 14.49 1260.59 14.2996 1261.23 14.2996C1261.66 14.2992 1262.08 14.383 1262.48 14.5463C1262.87 14.7096 1263.23 14.9491 1263.53 15.2511C1263.84 15.5531 1264.07 15.9117 1264.24 16.3063C1264.4 16.7009 1264.48 17.1238 1264.48 17.5507Z" fill="white"/>
<path d="M1192.59 66.6245C1192.59 67.2676 1192.4 67.8965 1192.04 68.4315C1191.69 68.9665 1191.18 69.3836 1190.58 69.6301C1189.99 69.8766 1189.34 69.9414 1188.71 69.8163C1188.08 69.6912 1187.5 69.3818 1187.04 68.9272C1186.59 68.4726 1186.28 67.8934 1186.15 67.2626C1186.02 66.6319 1186.09 65.9781 1186.33 65.3839C1186.58 64.7896 1187 64.2817 1187.53 63.9243C1188.07 63.567 1188.7 63.3762 1189.34 63.3762C1190.2 63.3762 1191.03 63.7184 1191.64 64.3275C1192.25 64.9366 1192.59 65.7628 1192.59 66.6245Z" fill="white"/>
<path d="M1192.59 137.709C1192.59 138.352 1192.4 138.981 1192.04 139.516C1191.69 140.051 1191.18 140.468 1190.58 140.715C1189.99 140.961 1189.34 141.026 1188.71 140.901C1188.08 140.776 1187.5 140.466 1187.04 140.012C1186.59 139.557 1186.28 138.978 1186.15 138.347C1186.02 137.716 1186.09 137.062 1186.33 136.468C1186.58 135.874 1187 135.366 1187.53 135.009C1188.07 134.651 1188.7 134.461 1189.34 134.461C1190.2 134.461 1191.03 134.803 1191.64 135.412C1192.25 136.021 1192.59 136.847 1192.59 137.709Z" fill="white"/>
<path d="M1272.86 163.794C1274.65 163.794 1276.11 162.34 1276.11 160.546C1276.11 158.752 1274.65 157.297 1272.86 157.297C1271.06 157.297 1269.61 158.752 1269.61 160.546C1269.61 162.34 1271.06 163.794 1272.86 163.794Z" fill="white"/>
<path d="M1338.85 243.272C1338.85 243.915 1338.66 244.543 1338.3 245.077C1337.95 245.611 1337.44 246.028 1336.85 246.273C1336.25 246.519 1335.6 246.584 1334.97 246.458C1334.34 246.333 1333.76 246.024 1333.31 245.569C1332.85 245.115 1332.54 244.536 1332.42 243.906C1332.29 243.276 1332.36 242.623 1332.6 242.029C1332.85 241.436 1333.27 240.928 1333.8 240.572C1334.33 240.215 1334.96 240.024 1335.6 240.024C1336.47 240.025 1337.29 240.367 1337.9 240.976C1338.51 241.585 1338.85 242.411 1338.85 243.272Z" fill="white"/>
<path d="M1376.28 132.126C1376.28 132.768 1376.09 133.396 1375.73 133.931C1375.38 134.465 1374.87 134.881 1374.28 135.127C1373.68 135.373 1373.03 135.437 1372.4 135.312C1371.77 135.186 1371.19 134.877 1370.74 134.423C1370.28 133.968 1369.97 133.39 1369.85 132.76C1369.72 132.129 1369.79 131.476 1370.03 130.883C1370.28 130.289 1370.69 129.782 1371.23 129.425C1371.76 129.068 1372.39 128.878 1373.03 128.878C1373.89 128.878 1374.72 129.22 1375.33 129.829C1375.94 130.438 1376.28 131.264 1376.28 132.126Z" fill="white"/>
<path d="M1359.61 25.739C1359.61 26.3815 1359.42 27.0095 1359.07 27.5437C1358.71 28.0779 1358.2 28.4942 1357.61 28.7401C1357.02 28.9859 1356.36 29.0502 1355.73 28.9249C1355.1 28.7996 1354.52 28.4902 1354.07 28.0359C1353.61 27.5816 1353.3 27.0029 1353.18 26.3727C1353.05 25.7426 1353.12 25.0895 1353.36 24.496C1353.61 23.9024 1354.03 23.3951 1354.56 23.0382C1355.09 22.6813 1355.72 22.4908 1356.37 22.4908C1357.23 22.4908 1358.05 22.833 1358.66 23.4422C1359.27 24.0513 1359.61 24.8775 1359.61 25.739Z" fill="white"/>
<path d="M1464.69 36.4031C1464.69 37.0454 1464.5 37.6732 1464.15 38.207C1463.79 38.7408 1463.28 39.1567 1462.69 39.4021C1462.09 39.6475 1461.44 39.7115 1460.81 39.5858C1460.18 39.4601 1459.6 39.1506 1459.15 38.6962C1458.69 38.2418 1458.39 37.663 1458.26 37.033C1458.14 36.4029 1458.2 35.7499 1458.45 35.1566C1458.69 34.5632 1459.11 34.056 1459.64 33.6992C1460.18 33.3424 1460.8 33.152 1461.45 33.152C1461.87 33.152 1462.3 33.2361 1462.69 33.3995C1463.08 33.5629 1463.44 33.8025 1463.74 34.1044C1464.05 34.4063 1464.29 34.7647 1464.45 35.1592C1464.61 35.5536 1464.7 35.9763 1464.69 36.4031Z" fill="white"/>
<path d="M1533.02 119.26C1533.02 119.903 1532.83 120.531 1532.48 121.066C1532.12 121.601 1531.61 122.018 1531.02 122.264C1530.42 122.51 1529.77 122.574 1529.14 122.448C1528.51 122.322 1527.93 122.012 1527.47 121.558C1527.02 121.103 1526.71 120.523 1526.58 119.892C1526.46 119.261 1526.52 118.608 1526.77 118.014C1527.02 117.42 1527.43 116.912 1527.97 116.555C1528.5 116.198 1529.13 116.008 1529.78 116.009C1530.2 116.009 1530.63 116.093 1531.02 116.256C1531.41 116.42 1531.77 116.659 1532.07 116.961C1532.38 117.263 1532.62 117.621 1532.78 118.016C1532.94 118.41 1533.03 118.833 1533.02 119.26Z" fill="white"/>
<path d="M1590.37 96.2369C1592.17 96.2369 1593.62 94.7826 1593.62 92.9886C1593.62 91.1946 1592.17 89.7403 1590.37 89.7403C1588.58 89.7403 1587.13 91.1946 1587.13 92.9886C1587.13 94.7826 1588.58 96.2369 1590.37 96.2369Z" fill="white"/>
<path d="M1566.12 25.0144C1566.12 25.6576 1565.93 26.2866 1565.58 26.8216C1565.22 27.3567 1564.71 27.7739 1564.12 28.0203C1563.52 28.2667 1562.87 28.3313 1562.24 28.206C1561.61 28.0806 1561.03 27.7709 1560.57 27.3161C1560.12 26.8612 1559.81 26.2817 1559.68 25.6508C1559.56 25.0198 1559.62 24.3659 1559.87 23.7717C1560.11 23.1776 1560.53 22.6698 1561.07 22.3128C1561.6 21.9558 1562.23 21.7655 1562.87 21.7661C1563.74 21.7661 1564.56 22.1083 1565.17 22.7175C1565.78 23.3267 1566.12 24.1529 1566.12 25.0144Z" fill="white"/>
<path d="M1625.82 57.2942C1625.82 57.9371 1625.63 58.5662 1625.28 59.1019C1624.92 59.6376 1624.42 60.0556 1623.82 60.3032C1623.23 60.5508 1622.58 60.6167 1621.95 60.4927C1621.31 60.3686 1620.73 60.0602 1620.28 59.6063C1619.82 59.1525 1619.51 58.5737 1619.39 57.9433C1619.26 57.3129 1619.32 56.6592 1619.57 56.065C1619.82 55.4708 1620.23 54.9628 1620.77 54.6054C1621.3 54.248 1621.93 54.0572 1622.57 54.0572C1623.43 54.0572 1624.26 54.3979 1624.87 55.0046C1625.47 55.6113 1625.82 56.4346 1625.82 57.2942Z" fill="white"/>
<path d="M1769.26 72.1427C1769.26 72.7851 1769.07 73.4131 1768.72 73.9473C1768.36 74.4815 1767.85 74.8978 1767.26 75.1437C1766.66 75.3895 1766.01 75.4539 1765.38 75.3285C1764.75 75.2032 1764.17 74.8938 1763.72 74.4395C1763.26 73.9853 1762.95 73.4065 1762.83 72.7764C1762.7 72.1463 1762.77 71.4931 1763.01 70.8996C1763.26 70.3061 1763.68 69.7987 1764.21 69.4418C1764.74 69.0849 1765.37 68.8944 1766.02 68.8944C1766.88 68.8944 1767.7 69.2366 1768.31 69.8458C1768.92 70.455 1769.26 71.2812 1769.26 72.1427Z" fill="white"/>
<path d="M1842.27 29.4216C1842.27 30.0639 1842.08 30.6916 1841.72 31.2254C1841.36 31.7592 1840.86 32.1751 1840.26 32.4206C1839.67 32.666 1839.02 32.7299 1838.39 32.6042C1837.76 32.4786 1837.18 32.169 1836.72 31.7146C1836.27 31.2602 1835.96 30.6814 1835.84 30.0514C1835.71 29.4214 1835.78 28.7684 1836.02 28.175C1836.27 27.5816 1836.68 27.0745 1837.22 26.7177C1837.75 26.3609 1838.38 26.1704 1839.02 26.1704C1839.45 26.1704 1839.87 26.2546 1840.27 26.418C1840.66 26.5814 1841.02 26.8209 1841.32 27.1228C1841.62 27.4248 1841.86 27.7832 1842.02 28.1776C1842.19 28.5721 1842.27 28.9947 1842.27 29.4216Z" fill="white"/>
<path d="M1836.32 119.798C1838.11 119.798 1839.56 118.344 1839.56 116.55C1839.56 114.756 1838.11 113.302 1836.32 113.302C1834.52 113.302 1833.07 114.756 1833.07 116.55C1833.07 118.344 1834.52 119.798 1836.32 119.798Z" fill="white"/>
<path d="M1708.14 143.949C1708.14 144.592 1707.95 145.221 1707.59 145.756C1707.24 146.291 1706.73 146.708 1706.14 146.954C1705.54 147.201 1704.89 147.266 1704.26 147.141C1703.63 147.015 1703.05 146.706 1702.59 146.252C1702.14 145.797 1701.83 145.218 1701.7 144.587C1701.58 143.956 1701.64 143.302 1701.89 142.708C1702.13 142.114 1702.55 141.606 1703.08 141.249C1703.62 140.891 1704.25 140.701 1704.89 140.701C1705.75 140.701 1706.58 141.043 1707.19 141.652C1707.8 142.261 1708.14 143.087 1708.14 143.949Z" fill="white"/>
<path d="M1606.42 226.148C1608.21 226.148 1609.66 224.694 1609.66 222.9C1609.66 221.106 1608.21 219.652 1606.42 219.652C1604.62 219.652 1603.17 221.106 1603.17 222.9C1603.17 224.694 1604.62 226.148 1606.42 226.148Z" fill="white"/>
<path d="M1462.98 127.817C1462.98 128.46 1462.78 129.088 1462.43 129.622C1462.07 130.156 1461.56 130.573 1460.97 130.818C1460.38 131.064 1459.72 131.129 1459.09 131.003C1458.46 130.878 1457.88 130.569 1457.43 130.114C1456.98 129.66 1456.67 129.081 1456.54 128.451C1456.42 127.821 1456.48 127.168 1456.73 126.574C1456.97 125.981 1457.39 125.473 1457.92 125.117C1458.46 124.76 1459.08 124.569 1459.73 124.569C1460.59 124.569 1461.41 124.911 1462.02 125.521C1462.63 126.13 1462.98 126.956 1462.98 127.817Z" fill="white"/>
<path d="M1120.67 197.627C1120.67 198.27 1120.48 198.898 1120.13 199.432C1119.77 199.966 1119.26 200.382 1118.67 200.628C1118.07 200.874 1117.42 200.938 1116.79 200.813C1116.16 200.688 1115.58 200.378 1115.13 199.924C1114.67 199.47 1114.36 198.891 1114.24 198.261C1114.11 197.631 1114.18 196.978 1114.42 196.384C1114.67 195.791 1115.09 195.283 1115.62 194.926C1116.15 194.569 1116.78 194.379 1117.43 194.379C1118.29 194.379 1119.11 194.721 1119.72 195.33C1120.33 195.94 1120.67 196.766 1120.67 197.627Z" fill="white"/>
<path d="M121.488 132.126C121.488 132.768 121.298 133.396 120.941 133.931C120.584 134.465 120.077 134.881 119.483 135.127C118.89 135.373 118.236 135.437 117.606 135.312C116.976 135.186 116.397 134.877 115.943 134.423C115.489 133.968 115.18 133.39 115.054 132.76C114.929 132.129 114.993 131.476 115.239 130.883C115.485 130.289 115.901 129.782 116.435 129.425C116.97 129.068 117.598 128.878 118.24 128.878C119.102 128.878 119.928 129.22 120.537 129.829C121.146 130.438 121.488 131.264 121.488 132.126Z" fill="white"/>
<path d="M82.1622 69.5006C82.1622 70.1429 81.9717 70.7708 81.6149 71.305C81.2581 71.8391 80.751 72.2554 80.1576 72.5013C79.5642 72.7473 78.9112 72.8118 78.2812 72.6867C77.6512 72.5616 77.0724 72.2525 76.618 71.7985C76.1636 71.3445 75.854 70.766 75.7284 70.136C75.6027 69.5061 75.6666 68.8531 75.912 68.2595C76.1575 67.6659 76.5734 67.1584 77.1072 66.8011C77.641 66.4439 78.2687 66.2529 78.9111 66.2523C79.3379 66.252 79.7605 66.3357 80.155 66.4988C80.5494 66.6618 80.9078 66.9011 81.2098 67.2027C81.5117 67.5044 81.7512 67.8626 81.9146 68.2569C82.078 68.6512 82.1622 69.0738 82.1622 69.5006Z" fill="white"/>
<path d="M115.697 3.565C115.697 4.20745 115.506 4.83546 115.149 5.36964C114.792 5.90382 114.285 6.32018 113.691 6.56603C113.098 6.81189 112.445 6.8762 111.815 6.75087C111.185 6.62553 110.606 6.31616 110.152 5.86188C109.697 5.4076 109.388 4.82881 109.263 4.19871C109.137 3.5686 109.202 2.91548 109.447 2.32194C109.693 1.72839 110.11 1.22107 110.644 0.864146C111.178 0.50722 111.806 0.316713 112.448 0.316713C112.875 0.316342 113.298 0.400119 113.692 0.563229C114.086 0.726339 114.444 0.965586 114.746 1.26729C115.048 1.569 115.287 1.92724 115.45 2.32151C115.613 2.71577 115.697 3.13833 115.697 3.565Z" fill="white"/>
</svg>
