<svg width="41" height="40" viewBox="0 0 41 40" fill="none" xmlns="http://www.w3.org/2000/svg">
<path d="M30.6667 11.9333C30.5667 11.9166 30.45 11.9166 30.35 11.9333C28.05 11.8499 26.2167 9.96659 26.2167 7.63325C26.2167 5.24992 28.1333 3.33325 30.5167 3.33325C32.9 3.33325 34.8167 5.26659 34.8167 7.63325C34.8 9.96659 32.9667 11.8499 30.6667 11.9333Z" stroke="#684594" stroke-width="2" stroke-linecap="round" stroke-linejoin="round"/>
<path d="M28.95 24.0666C31.2334 24.4499 33.75 24.0499 35.5167 22.8666C37.8667 21.2999 37.8667 18.7333 35.5167 17.1666C33.7334 15.9833 31.1834 15.5833 28.9 15.9833" stroke="#684594" stroke-width="2" stroke-linecap="round" stroke-linejoin="round"/>
<path d="M10.6167 11.9333C10.7167 11.9166 10.8333 11.9166 10.9333 11.9333C13.2333 11.8499 15.0667 9.96659 15.0667 7.63325C15.0667 5.24992 13.15 3.33325 10.7667 3.33325C8.38334 3.33325 6.46667 5.26659 6.46667 7.63325C6.48334 9.96659 8.31668 11.8499 10.6167 11.9333Z" stroke="#684594" stroke-width="2" stroke-linecap="round" stroke-linejoin="round"/>
<path d="M12.3333 24.0666C10.05 24.4499 7.53332 24.0499 5.76665 22.8666C3.41665 21.2999 3.41665 18.7333 5.76665 17.1666C7.54998 15.9833 10.1 15.5833 12.3833 15.9833" stroke="#684594" stroke-width="2" stroke-linecap="round" stroke-linejoin="round"/>
<path d="M20.6665 24.3835C20.5665 24.3668 20.4499 24.3668 20.3499 24.3835C18.0499 24.3001 16.2166 22.4168 16.2166 20.0834C16.2166 17.7001 18.1332 15.7834 20.5165 15.7834C22.8999 15.7834 24.8166 17.7168 24.8166 20.0834C24.7999 22.4168 22.9665 24.3168 20.6665 24.3835Z" stroke="#684594" stroke-width="2" stroke-linecap="round" stroke-linejoin="round"/>
<path d="M15.8166 29.6333C13.4666 31.2 13.4666 33.7667 15.8166 35.3333C18.4832 37.1167 22.8499 37.1167 25.5166 35.3333C27.8666 33.7667 27.8666 31.2 25.5166 29.6333C22.8666 27.8667 18.4832 27.8667 15.8166 29.6333Z" stroke="#684594" stroke-width="2" stroke-linecap="round" stroke-linejoin="round"/>
</svg>
